<svg width="53" height="53" viewBox="0 0 53 53" fill="none" xmlns="http://www.w3.org/2000/svg">
<path d="M2.39133 18.982L26.2959 1.61427L50.2005 18.982L41.0697 47.0835H11.5221L2.39133 18.982Z" stroke="#1565D8" stroke-width="1.4"/>
<path fill-rule="evenodd" clip-rule="evenodd" d="M19.6292 23.4155C19.169 23.4155 18.7959 23.7886 18.7959 24.2489V32.5822C18.7959 33.0424 19.169 33.4155 19.6292 33.4155H32.9625C33.4228 33.4155 33.7959 33.0424 33.7959 32.5822V24.2489C33.7959 23.7886 33.4228 23.4155 32.9625 23.4155H19.6292ZM17.1292 24.2489C17.1292 22.8681 18.2485 21.7489 19.6292 21.7489H32.9625C34.3433 21.7489 35.4625 22.8681 35.4625 24.2489V32.5822C35.4625 33.9629 34.3433 35.0822 32.9625 35.0822H19.6292C18.2485 35.0822 17.1292 33.9629 17.1292 32.5822V24.2489Z" fill="#1565D8"/>
<path fill-rule="evenodd" clip-rule="evenodd" d="M22.8614 19.1478C23.3303 18.6789 23.9662 18.4155 24.6292 18.4155H27.9625C28.6256 18.4155 29.2615 18.6789 29.7303 19.1478C30.1992 19.6166 30.4625 20.2525 30.4625 20.9155V34.2489C30.4625 34.7091 30.0894 35.0822 29.6292 35.0822C29.169 35.0822 28.7959 34.7091 28.7959 34.2489V20.9155C28.7959 20.6945 28.7081 20.4826 28.5518 20.3263C28.3955 20.17 28.1836 20.0822 27.9625 20.0822H24.6292C24.4082 20.0822 24.1962 20.17 24.04 20.3263C23.8837 20.4826 23.7959 20.6945 23.7959 20.9155V34.2489C23.7959 34.7091 23.4228 35.0822 22.9625 35.0822C22.5023 35.0822 22.1292 34.7091 22.1292 34.2489V20.9155C22.1292 20.2525 22.3926 19.6166 22.8614 19.1478Z" fill="#1565D8"/>
</svg>
