<svg width="25" height="25" viewBox="0 0 25 25" fill="none" xmlns="http://www.w3.org/2000/svg">
<path d="M22.1014 10.7905H21.2959V10.749H12.2959V14.749H17.9474C17.1229 17.0775 14.9074 18.749 12.2959 18.749C8.9824 18.749 6.2959 16.0625 6.2959 12.749C6.2959 9.43552 8.9824 6.74902 12.2959 6.74902C13.8254 6.74902 15.2169 7.32602 16.2764 8.26852L19.1049 5.44002C17.3189 3.77552 14.9299 2.74902 12.2959 2.74902C6.7734 2.74902 2.2959 7.22652 2.2959 12.749C2.2959 18.2715 6.7734 22.749 12.2959 22.749C17.8184 22.749 22.2959 18.2715 22.2959 12.749C22.2959 12.0785 22.2269 11.424 22.1014 10.7905Z" fill="#FFC107"/>
<path d="M3.44897 8.09452L6.73447 10.504C7.62347 8.30302 9.77647 6.74902 12.296 6.74902C13.8255 6.74902 15.217 7.32602 16.2765 8.26852L19.105 5.44002C17.319 3.77552 14.93 2.74902 12.296 2.74902C8.45497 2.74902 5.12397 4.91752 3.44897 8.09452Z" fill="#FF3D00"/>
<path d="M12.2958 22.7494C14.8788 22.7494 17.2258 21.7609 19.0003 20.1534L15.9053 17.5344C14.8676 18.3236 13.5995 18.7504 12.2958 18.7494C9.69481 18.7494 7.48631 17.0909 6.65431 14.7764L3.39331 17.2889C5.04831 20.5274 8.40931 22.7494 12.2958 22.7494Z" fill="#4CAF50"/>
<path d="M22.1014 10.7905H21.2959V10.749H12.2959V14.749H17.9474C17.553 15.8572 16.8426 16.8256 15.9039 17.5345L15.9054 17.5335L19.0004 20.1525C18.7814 20.3515 22.2959 17.749 22.2959 12.749C22.2959 12.0785 22.2269 11.424 22.1014 10.7905Z" fill="#1976D2"/>
</svg>
