<?xml version="1.0" encoding="UTF-8" standalone="no"?>
<svg
   width="30"
   height="30"
   viewBox="0 0 30 30"
   fill="none"
   version="1.1"
   id="svg54"
   sodipodi:docname="menu_daten.svg"
   inkscape:version="1.1.2 (1:1.1+202202050950+0a00cf5339)"
   xmlns:inkscape="http://www.inkscape.org/namespaces/inkscape"
   xmlns:sodipodi="http://sodipodi.sourceforge.net/DTD/sodipodi-0.dtd"
   xmlns="http://www.w3.org/2000/svg"
   xmlns:svg="http://www.w3.org/2000/svg">
  <defs
     id="defs58" />
  <sodipodi:namedview
     id="namedview56"
     pagecolor="#ffffff"
     bordercolor="#999999"
     borderopacity="1"
     inkscape:pageshadow="0"
     inkscape:pageopacity="0"
     inkscape:pagecheckerboard="0"
     showgrid="false"
     width="30px"
     inkscape:zoom="1.7711341"
     inkscape:cx="79.327702"
     inkscape:cy="108.96973"
     inkscape:window-width="1366"
     inkscape:window-height="699"
     inkscape:window-x="0"
     inkscape:window-y="0"
     inkscape:window-maximized="1"
     inkscape:current-layer="svg54" />
  <g
     id="g289"
     transform="matrix(1.0051411,0,0,1.0051411,-0.00883425,-90.326468)">
    <path
       d="m 5.60977,98.4845 c -0.01194,0 -0.0231,0.011 -0.0231,0.0225 v 18.24 c 0,0.012 0.01116,0.023 0.0231,0.023 H 8.5879 c 0.01194,0 0.02299,-0.011 0.02299,-0.023 v -18.24 c 0,-0.0115 -0.01105,-0.0225 -0.02299,-0.0225 z M 8.5879,117.337 H 5.60977 c -0.32489,0 -0.58951,-0.265 -0.58951,-0.59 v -18.24 c 0,-0.3249 0.26462,-0.5893 0.58951,-0.5893 H 8.5879 c 0.32477,0 0.58951,0.2644 0.58951,0.5893 v 18.24 c 0,0.325 -0.26474,0.59 -0.58951,0.59 z"
       fill="#c7c7c7"
       id="path36" />
    <path
       d="m 10.598,116.77 h 3.0233 V 102.632 H 10.598 Z m 3.0614,0.567 H 10.56 c -0.2912,0 -0.5285,-0.237 -0.5285,-0.529 v -14.214 c 0,-0.291 0.2373,-0.529 0.5285,-0.529 h 3.0994 c 0.2912,0 0.5283,0.238 0.5283,0.529 v 14.214 c 0,0.292 -0.2371,0.529 -0.5283,0.529 z"
       fill="#c7c7c7"
       id="path38" />
    <path
       d="M 0.575307,116.77 H 3.59897 V 103.169 H 0.575307 Z m 3.061723,0.567 H 0.537249 c -0.291741,0 -0.52845994,-0.237 -0.52845994,-0.529 V 103.13 c 0,-0.291 0.23671894,-0.528 0.52845994,-0.528 H 3.63703 c 0.29129,0 0.52846,0.237 0.52846,0.528 v 13.678 c 0,0.292 -0.23717,0.529 -0.52846,0.529 z"
       fill="#c7c7c7"
       id="path40" />
    <path
       d="m 15.6068,116.77 h 3.0241 v -8.969 h -3.0241 z m 3.0896,0.567 h -3.1551 c -0.2766,0 -0.501,-0.225 -0.501,-0.501 v -9.1 c 0,-0.277 0.2244,-0.502 0.501,-0.502 h 3.1551 c 0.2767,0 0.501,0.225 0.501,0.502 v 9.1 c 0,0.276 -0.2243,0.501 -0.501,0.501 z"
       fill="#c7c7c7"
       id="path42" />
    <path
       d="m 23.6821,117.337 h -3.099 c -0.2916,0 -0.5284,-0.238 -0.5284,-0.529 v -11.82 c 0,-0.157 0.1267,-0.284 0.2832,-0.284 0.1563,0 0.2833,0.127 0.2833,0.284 v 11.782 h 3.0229 v -9.498 c 0,-0.156 0.127,-0.283 0.2832,-0.283 0.1567,0 0.2833,0.127 0.2833,0.283 v 9.536 c 0,0.291 -0.2368,0.529 -0.5285,0.529 z"
       fill="#c7c7c7"
       id="path44" />
    <path
       d="m 22.106,103.703 c -1.1339,0 -2.1537,-0.629 -2.6613,-1.641 -0.736,-1.468 -0.142,-3.2605 1.3243,-3.9964 0.4186,-0.2103 0.8669,-0.317 1.3321,-0.317 1.1339,0 2.154,0.6292 2.6617,1.6418 0.736,1.4666 0.1417,3.2586 -1.3242,3.9956 -0.4191,0.21 -0.8675,0.317 -1.3326,0.317 z m 3.1635,-4.5668 c -0.6055,-1.2057 -1.8194,-1.9543 -3.1684,-1.9543 -0.5541,0 -1.0878,0.1265 -1.5862,0.3768 -1.7455,0.8766 -2.4528,3.0103 -1.5765,4.7563 0.6045,1.206 1.8186,1.955 3.1676,1.955 0.5541,0 1.0878,-0.128 1.5866,-0.378 1.7451,-0.876 2.4524,-3.01 1.5769,-4.7558 z"
       fill="#c7c7c7"
       id="path46" />
    <path
       d="m 29.0908,114.009 -0.5536,0.278 c -0.05,0.025 -0.1036,0.038 -0.1594,0.038 -0.1358,0 -0.2624,-0.077 -0.3227,-0.198 l -3.1936,-6.364 c -0.0885,-0.177 -0.0169,-0.394 0.1598,-0.482 l 0.554,-0.279 c 0.0501,-0.024 0.1036,-0.037 0.1594,-0.037 0.1358,0 0.2629,0.077 0.3231,0.197 l 3.1932,6.365 c 0.0889,0.177 0.0173,0.394 -0.1602,0.482 z m -5.1318,-7.274 -0.023,-0.046 c -0.0889,-0.177 -0.0168,-0.393 0.1599,-0.482 l 1.1727,-0.589 c 0.0496,-0.025 0.1031,-0.037 0.159,-0.037 0.1362,0 0.2628,0.077 0.3231,0.197 l 0.0229,0.046 c 0.0426,0.085 0.0496,0.182 0.0195,0.274 -0.0305,0.091 -0.0942,0.165 -0.1793,0.208 l -1.1727,0.589 c -0.0496,0.025 -0.1036,0.037 -0.1594,0.037 -0.1354,0 -0.2624,-0.077 -0.3227,-0.197 z m 0.3222,-1.668 c 0.0085,-0.005 0.0169,-0.01 0.0248,-0.014 l 0.1952,-0.098 0.1479,0.295 -0.478,0.24 -0.1479,-0.295 0.2368,-0.119 c 0.0071,-0.003 0.0146,-0.006 0.0212,-0.009 z m -6.0098,-2.417 c -1.0604,-2.114 -0.2045,-4.6976 1.9085,-5.7585 0.6037,-0.3028 1.2493,-0.457 1.9194,-0.457 1.6341,0 3.1043,0.9069 3.8367,2.3671 0.5139,1.0237 0.5985,2.1864 0.2378,3.2744 -0.3567,1.077 -1.1083,1.952 -2.116,2.468 l -0.0567,0.028 c -0.5958,0.294 -1.2326,0.445 -1.8933,0.445 -1.6341,0 -3.1044,-0.907 -3.8364,-2.367 z m 11.4855,10.623 -3.1929,-6.365 c -0.0822,-0.164 -0.2083,-0.294 -0.3598,-0.383 0.0536,-0.075 0.0966,-0.159 0.1263,-0.249 0.0783,-0.235 0.0597,-0.486 -0.0505,-0.706 l -0.0231,-0.046 c -0.1579,-0.315 -0.4758,-0.51 -0.8293,-0.51 -0.0829,0 -0.1656,0.013 -0.2457,0.035 L 24.977,104.64 c 0.8081,-0.591 1.4127,-1.415 1.7345,-2.385 0.408,-1.232 0.3125,-2.5485 -0.2695,-3.7076 -0.8291,-1.6528 -2.4927,-2.6796 -4.3427,-2.6796 -0.759,0 -1.4906,0.174 -2.1735,0.5172 -2.3921,1.2008 -3.3614,4.126 -2.1607,6.519 0.0602,0.121 0.1262,0.237 0.1952,0.35 l -0.9737,1.729 -1.965,-4.799 c -0.0434,-0.106 -0.147,-0.176 -0.262,-0.176 H 12.3984 L 7.33788,92.7937 C 7.28878,92.7234 7.21043,92.6791 7.1246,92.6737 7.03822,92.668 6.95596,92.7016 6.89748,92.7646 l -5.20916,5.6619 c -0.10625,0.1152 -0.09867,0.2945 0.0164,0.4003 0.11552,0.1058 0.29431,0.0987 0.40056,-0.0168 l 4.971,-5.403 4.94322,7.047 c 0.0531,0.076 0.1394,0.121 0.2319,0.121 h 2.3179 l 2.1146,5.164 c 0.0416,0.101 0.1363,0.168 0.2447,0.175 0.0058,0.001 0.0115,0.001 0.0178,0.001 0.1013,0 0.196,-0.055 0.2464,-0.144 l 1.1269,-2 c 0.9095,1.137 2.2876,1.812 3.7881,1.812 0.4709,0 0.9311,-0.067 1.3754,-0.2 l 0.2072,0.414 c -0.3425,0.265 -0.4621,0.745 -0.2606,1.146 l 0.023,0.046 c 0.1549,0.31 0.4647,0.502 0.8112,0.509 -0.0199,0.172 0.008,0.352 0.0911,0.519 l 3.1938,6.364 c 0.1579,0.315 0.4753,0.51 0.8289,0.51 0.143,0 0.2859,-0.033 0.4134,-0.097 l 0.5541,-0.278 c 0.4558,-0.23 0.6409,-0.787 0.4116,-1.243 z"
       fill="#c7c7c7"
       id="path48" />
  </g>
</svg>
