<svg width="54" height="54" viewBox="0 0 54 54" fill="none" xmlns="http://www.w3.org/2000/svg">
<path d="M32 20.1333H8.66667C8.22464 20.1333 7.80072 20.3089 7.48816 20.6215C7.1756 20.934 7 21.3579 7 21.8V28.3333C7 28.7753 7.1756 29.1993 7.48816 29.5118C7.80072 29.8244 8.22464 30 8.66667 30H27.6L33.6667 23.8333V21.8C33.6667 21.3579 33.4911 20.934 33.1785 20.6215C32.866 20.3089 32.442 20.1333 32 20.1333ZM30.3333 26.6666H10.3333V23.3333H30.3333V26.6666Z" fill="#1565D8"/>
<path d="M15.4334 49.1833V49.0833L15.9667 46.7667H3.66671V3.33333H37V20.4167L40.3334 17.2667V1.66667C40.3334 1.22464 40.1578 0.800716 39.8452 0.488155C39.5327 0.175595 39.1087 0 38.6667 0H2.00004C1.55801 0 1.13409 0.175595 0.821529 0.488155C0.508969 0.800716 0.333374 1.22464 0.333374 1.66667V48.3333C0.333374 48.7754 0.508969 49.1993 0.821529 49.5119C1.13409 49.8244 1.55801 50 2.00004 50H15.3334C15.3471 49.7257 15.3805 49.4528 15.4334 49.1833Z" fill="#1565D8"/>
<path d="M33.6667 28.6167L32.3667 29.9334C32.6892 29.8669 32.9848 29.7063 33.2162 29.472C33.4476 29.2377 33.6043 28.94 33.6667 28.6167Z" fill="#1565D8"/>
<path d="M7 41.5668C7 42.0089 7.1756 42.4328 7.48816 42.7453C7.80072 43.0579 8.22464 43.2335 8.66667 43.2335H16.7333L17.2333 41.0668L17.45 40.1502V40.0668H10.3333V36.6668H20.9L24.2333 33.3335H8.66667C8.22464 33.3335 7.80072 33.5091 7.48816 33.8217C7.1756 34.1342 7 34.5581 7 35.0002V41.5668Z" fill="#1565D8"/>
<path d="M52.8166 24.4501L47.2 18.8335C46.9507 18.5835 46.6546 18.3852 46.3285 18.2499C46.0025 18.1146 45.653 18.0449 45.3 18.0449C44.947 18.0449 44.5974 18.1146 44.2714 18.2499C43.9454 18.3852 43.6492 18.5835 43.4 18.8335L20.55 41.8168L18.6666 49.8334C18.5961 50.1793 18.5945 50.5357 18.662 50.8821C18.7294 51.2286 18.8645 51.5583 19.0596 51.8525C19.2547 52.1467 19.5059 52.3994 19.7988 52.5964C20.0917 52.7933 20.4206 52.9305 20.7666 53.0001C20.9384 53.0174 21.1115 53.0174 21.2833 53.0001C21.4875 53.0334 21.6958 53.0334 21.9 53.0001L29.9833 51.2168L52.8166 28.3335C53.0661 28.0856 53.264 27.7909 53.3991 27.4662C53.5342 27.1416 53.6038 26.7934 53.6038 26.4418C53.6038 26.0902 53.5342 25.742 53.3991 25.4173C53.264 25.0927 53.0661 24.798 52.8166 24.5501V24.4501ZM28.2833 48.1834L22.1833 49.5334L23.6666 43.4834L40.8 26.1668L45.5 30.8668L28.2833 48.1834ZM47.3833 28.9835L42.6833 24.2835L45.3333 21.6668L50.0666 26.4001L47.3833 28.9835Z" fill="#1565D8"/>
</svg>
