<svg width="53" height="53" viewBox="0 0 53 53" fill="none" xmlns="http://www.w3.org/2000/svg">
<path d="M26.2959 0.749023L51.0234 18.7146L41.5783 47.7835H11.0135L1.56843 18.7146L26.2959 0.749023Z" fill="#1565D8"/>
<g clip-path="url(#clip0_738_637)">
<path d="M8 11H44V47H8V11Z" fill="#1565D8"/>
<path d="M8 11H44V47H8V11Z" fill="#1565D8"/>
<path d="M8 11H44V47H8V11Z" fill="#1565D8"/>
<path d="M24.6201 22.5925C24.6201 22.5925 25.4508 22.9659 25.6238 24.0788C25.797 25.1915 26.4327 29.3479 26.4327 29.3479C26.4327 29.3479 25.3675 29.6968 24.3712 29.8804C23.3748 30.0642 21.7568 29.7602 21.7568 29.7602C21.7568 29.7602 21.9265 24.6631 22.1067 23.7589C22.287 22.8545 22.9781 22.5308 22.9781 22.5308L24.6201 22.5925Z" fill="white"/>
<path d="M22.86 19.9251C23.0438 21.0086 23.7769 21.9617 24.4618 21.8456C25.1468 21.7294 25.5245 20.588 25.3406 19.5046C25.1567 18.4211 24.481 17.8056 23.796 17.9217C23.1111 18.038 22.6761 18.8416 22.86 19.9251Z" fill="white"/>
<path d="M23.4595 18.7224C23.4595 18.7224 23.5236 19.1123 23.4492 19.3986C23.3747 19.6851 23.2143 19.8936 23.2565 20.1133C23.2988 20.3331 23.5786 20.8289 23.2977 20.9737C23.0168 21.1185 22.637 20.7937 22.5563 20.392C22.4757 19.9902 22.1681 19.2184 22.2271 18.7654C22.3351 17.9358 23.0213 17.5254 23.7169 17.4689C24.4125 17.4127 24.7611 17.0921 25.2128 17.3063C25.6645 17.521 25.7059 17.7254 25.7208 18.0074C25.7485 18.5313 25.447 18.7244 25.6098 19.0731C25.7724 19.4221 26.0953 20.2864 25.3507 20.54C25.3977 19.5715 25.3231 18.8734 24.8971 18.7369C24.4712 18.6007 24.3019 19.1236 23.4595 18.7224Z" fill="white"/>
<path d="M24.4372 21.7513C24.4372 21.7513 24.364 22.2643 24.3777 22.4061C24.3913 22.548 24.6201 22.5925 24.6201 22.5925C24.6201 22.5925 25.0515 23.9207 24.214 23.6519C23.3763 23.3834 22.9781 22.5307 22.9781 22.5307C22.9781 22.5307 23.2352 22.2701 23.2684 22.0739C23.3213 21.761 23.3511 21.1187 23.3511 21.1187L24.4372 21.7513Z" fill="white"/>
<path d="M24.4237 21.8507C24.4237 21.8507 24.1685 21.8921 23.9269 21.6959C23.6852 21.4997 23.3537 20.9336 23.3537 20.9336L23.2415 20.9961C23.2415 20.9961 23.3789 21.2378 23.2834 22C23.5461 22.3724 24.4073 21.9828 24.4073 21.9828L24.4237 21.8507Z" fill="white"/>
<path d="M32.5036 29.0868H13.2677C13.0634 29.0868 12.8979 28.9212 12.8979 28.7171C12.8979 28.5128 13.0634 28.3472 13.2677 28.3472H32.5036C32.7079 28.3472 32.8736 28.5128 32.8736 28.7171C32.8736 28.9212 32.7079 29.0868 32.5036 29.0868Z" fill="white"/>
<path d="M22.8857 29.0864V38.6593H14.6026L14.088 39.4099H13.0265L13.9594 29.0864H22.8857Z" fill="white"/>
<path d="M22.8857 29.0864V38.6593H31.1685L31.6833 39.4099H32.7448L31.812 29.0864H22.8857Z" fill="white"/>
<path d="M13.9593 29.0864H31.8121L31.8759 29.794H13.8954L13.9593 29.0864Z" fill="white"/>
<path d="M19.7341 26.9263L18.8576 23.1415C18.8395 23.0636 18.7701 23.0083 18.6901 23.0083H18.5383L19.5052 27.1369H19.5665C19.6772 27.1369 19.7591 27.0339 19.7341 26.9263Z" fill="white"/>
<path d="M15.3381 27.137C15.3381 27.137 14.911 25.8149 15.9586 25.8149C17.0062 25.8149 17.2911 27.137 17.2911 27.137H15.3381Z" fill="white"/>
<path d="M16.3451 26.8423C16.3451 26.8423 15.8976 27.3711 15.9688 27.5236C16.0399 27.6761 16.5586 27.971 16.5586 27.971H15.9993C15.9993 27.971 15.5314 27.6965 15.511 27.5642C15.4907 27.4321 15.8873 26.944 15.8873 26.944L16.3451 26.8423Z" fill="white"/>
<path d="M15.2974 28.3471C15.2974 28.3471 15.5516 27.8794 16.3044 27.8794C17.057 27.8794 17.9317 27.9302 17.9317 28.3471C17.3724 28.3471 15.2974 28.3471 15.2974 28.3471Z" fill="white"/>
<path d="M40.229 40.0359H11.2128C11.0978 40.0359 11.0045 39.9424 11.0045 39.8274V39.6185C11.0045 39.5033 11.0978 39.4102 11.2128 39.4102H40.229C40.3442 39.4102 40.4373 39.5033 40.4373 39.6185V39.8274C40.4373 39.9424 40.3442 40.0359 40.229 40.0359Z" fill="white"/>
<path d="M34.2585 28.1538C34.2585 28.1538 34.1619 29.7691 33.6983 30.5068C33.2346 31.2442 32.0681 31.8872 32.0681 31.8872L32.3508 32.0692C32.3508 32.0692 34.1235 31.8124 34.6886 30.6162C35.2537 29.42 34.2585 28.1538 34.2585 28.1538Z" fill="white"/>
<path d="M37.4275 31.6392C37.4275 31.6392 38.3634 33.4211 36.0046 33.7258C33.6458 34.0304 31.9006 33.5671 31.545 34.0411C31.1895 34.515 30.0259 38.5544 30.0259 38.5544H29.2501C29.2501 38.5544 29.3148 33.7786 30.3168 32.741C31.3187 31.7038 35.2196 31.6392 35.2196 31.6392H37.4275Z" fill="white"/>
<path d="M29.9451 38.5542C29.9451 38.5542 30.1024 39.3359 29.6306 39.3359C29.0451 39.3359 28.6938 39.3359 28.6938 39.3359L29.3796 38.5542H29.9451Z" fill="white"/>
<path d="M29.3202 39.3361L29.2742 38.6743C29.2742 38.6743 28.5357 38.8262 28.2723 38.9352C28.0088 39.044 28.0145 39.4103 28.0145 39.4103H29.9754V39.3361H29.3202Z" fill="white"/>
<path d="M38.0523 31.6392C38.0523 31.6392 38.9883 33.4211 36.6295 33.7258C34.2707 34.0304 32.5254 33.5671 32.1698 34.0411C31.8145 34.515 30.6507 38.5544 30.6507 38.5544H29.8751C29.8751 38.5544 29.9398 33.7786 30.9417 32.741C31.9436 31.7038 35.8446 31.6392 35.8446 31.6392H38.0523Z" fill="white"/>
<path d="M30.57 38.5542C30.57 38.5542 30.7273 39.3359 30.2555 39.3359C29.67 39.3359 29.3187 39.3359 29.3187 39.3359L30.0045 38.5542H30.57Z" fill="white"/>
<path d="M29.9452 39.3361L29.8992 38.6743C29.8992 38.6743 29.1606 38.8262 28.8971 38.9352C28.6337 39.044 28.6395 39.4103 28.6395 39.4103H30.6001V39.3361H29.9452Z" fill="white"/>
<path d="M35.8608 25.249C35.8608 25.249 36.7007 25.4064 37.1829 26.4837C37.6651 27.5608 38.2967 31.6712 38.2967 31.6712C38.2967 31.6712 37.8718 32.1482 36.4058 32.0087C34.9397 31.8692 34.6592 31.6712 34.6592 31.6712C34.6592 31.6712 34.2319 28.4116 34.1913 27.1839C34.1505 25.9558 34.8558 25.2824 34.8558 25.2824L35.8608 25.249Z" fill="white"/>
<path d="M33.6851 22.2011C33.4134 23.2128 33.6692 24.3296 34.3089 24.5013C34.9484 24.6729 35.7293 23.8343 36.001 22.8228C36.2726 21.8113 35.932 21.0095 35.2926 20.8378C34.6531 20.6664 33.9568 21.1895 33.6851 22.2011Z" fill="white"/>
<path d="M35.5221 21.7564C35.5221 21.7564 35.6416 21.8832 35.6512 22.2693C35.6606 22.6555 34.9236 23.1161 35.2532 23.5458C35.4226 23.7673 35.7703 23.8609 35.9619 23.4596C36.1538 23.0582 36.5635 22.8399 36.6651 22.4739C36.7666 22.1076 36.7921 21.6802 36.5065 21.3311C36.2212 20.9818 36.0959 20.4844 35.467 20.3684C34.838 20.2525 34.5972 20.6481 34.2639 20.656C33.9307 20.6638 33.6202 21.0064 33.5891 21.4182C33.558 21.8301 33.7898 21.8853 33.7898 21.8853C33.7898 21.8853 34.0161 21.4512 34.2073 21.4274C34.3987 21.4037 34.3433 22.0316 35.5221 21.7564Z" fill="white"/>
<path d="M34.6887 24.5264L34.8558 25.2822L35.8608 25.2488L35.5033 23.8354L34.6887 24.4798V24.5264Z" fill="white"/>
<path d="M34.682 24.4959C34.682 24.4959 34.9369 24.4113 35.1713 24.1931C35.4057 23.9751 35.5033 23.8354 35.5033 23.8354L35.5434 23.9942C35.5434 23.9942 35.4379 24.3185 35.2279 24.5588C35.0177 24.799 34.7823 24.9497 34.7823 24.9497L34.682 24.4959Z" fill="white"/>
<path d="M40.662 26.835L38.1516 33.4102H38.819L40.9954 26.835H40.662Z" fill="white"/>
<path d="M38.3313 33.4102H34.058C33.7093 33.4102 33.4271 33.6926 33.4271 34.0408H38.841L38.8193 33.4102H38.3313Z" fill="white"/>
<path d="M38.669 33.9331L39.5955 39.41H39.4444L38.1516 33.9331H38.669Z" fill="white"/>
<path d="M33.5988 33.9331L32.6723 39.4101H32.8232L34.116 33.9331H33.5988Z" fill="white"/>
<path d="M33.1332 37.7788H39.2072V37.6602H33.1332V37.7788Z" fill="white"/>
<path d="M29.8992 38.6743L29.9543 38.6113C29.9543 38.6113 30.0438 38.7252 30.2782 38.7252C30.5124 38.7252 30.5793 38.6113 30.5793 38.6113C30.5793 38.6113 30.6223 38.6863 30.6223 38.8398C30.6223 38.9937 30.6001 39.336 30.6001 39.336L29.8144 39.3573L29.8992 38.6743Z" fill="white"/>
<path d="M32.7561 32.2312C32.7561 32.2312 32.5541 32.3471 32.2886 32.362C32.0233 32.3769 31.5568 32.3747 31.4929 32.3702C31.4288 32.3657 31.3877 32.0518 31.7915 31.8798C32.1953 31.7077 32.7746 31.7804 32.7746 31.7804C32.7746 31.7804 32.872 32.1415 32.7561 32.2312Z" fill="white"/>
<path d="M34.616 25.5887C34.616 25.5887 34.0838 26.6887 34.6887 26.7185C35.2935 26.7485 35.8608 25.2489 35.8608 25.2489L35.1302 25.0239L34.865 25.1734L34.616 25.5887Z" fill="white"/>
<path d="M35.9859 26.5747C35.9859 26.5747 36.0754 27.4908 36.0515 27.7754C36.0278 28.0601 35.9333 29.7046 35.9333 29.7046L35.0119 31.2538L34.5857 31.0938L34.4976 30.3736C34.4976 30.3736 35.1584 29.7778 35.4728 29.045C35.7868 28.3123 35.9961 27.0142 35.9859 26.5747Z" fill="white"/>
<path d="M37.4358 27.2534C37.4358 27.2534 37.4275 27.6004 37.4223 27.7003C37.4172 27.8004 36.134 30.7721 36.134 30.7721L35.2137 31.8414C35.2137 31.8414 35.8709 31.9869 36.9701 32.0338C37.4304 31.2118 37.7075 29.701 37.6686 28.2267C37.6062 27.9463 37.4358 27.2534 37.4358 27.2534Z" fill="white"/>
<path d="M36.0515 27.7755C36.0515 27.7755 36.0077 29.161 35.2748 30.3721C34.5418 31.5834 32.7561 31.7827 32.7561 31.7827V32.2314C32.7561 32.2314 35.852 32.2612 36.6148 30.7957C37.3775 29.3306 37.4223 27.7007 37.4223 27.7007L36.0515 27.7755Z" fill="white"/>
<path d="M23.1267 22.3545C23.1267 22.3545 23.4164 23.1211 23.5022 24.3969C23.5879 25.6726 23.6308 28.347 23.6308 28.347H21.6794C21.6794 28.347 21.7866 24.4076 22.0331 23.5287C22.2798 22.6496 23.1267 22.3545 23.1267 22.3545Z" fill="#1565D8"/>
<path d="M24.5369 22.5674C24.5369 22.5674 24.8693 23.1106 25.0622 24.4534C25.3129 26.1972 25.4848 28.3472 25.4848 28.3472H26.4327C26.4327 28.3472 25.8557 24.6973 25.6412 23.8612C25.4268 23.025 24.8209 22.5759 24.5369 22.5674Z" fill="#1565D8"/>
<path d="M25.2099 23.0083C25.2099 23.0083 25.5609 23.2874 26.0272 24.1557C26.4938 25.0239 26.8635 25.9888 27.3944 25.9406C27.9252 25.8924 28.3595 24.0432 28.3595 24.0432L29.276 24.3211C29.276 24.3211 28.6881 27.1211 27.5231 27.2592C26.3579 27.397 25.8825 26.476 25.8825 26.476L25.2099 23.0083Z" fill="white"/>
<path d="M28.5637 24.1051C28.5637 24.1051 28.657 23.9387 28.7131 23.7778C28.7695 23.6171 28.9946 23.5608 29.6703 23.585C30.3458 23.609 30.579 23.6492 30.4984 23.7939C30.4181 23.9387 29.8472 24.0864 29.6139 24.1051C29.3806 24.1236 29.1003 24.2677 29.1003 24.2677L28.5637 24.1051Z" fill="white"/>
<path d="M22.4397 22.8198C22.4397 22.8198 21.9368 23.1932 21.4971 23.9238C21.0574 24.6546 19.9478 26.9861 20.3659 27.7097C20.784 28.4333 23.9365 28.3473 23.9365 28.3473V27.5228C23.9365 27.5228 21.9575 27.149 21.7568 26.8424C21.556 26.536 22.7302 24.6385 22.7302 24.6385L22.4397 22.8198Z" fill="#1565D8"/>
<path d="M23.9365 27.9765C23.9365 27.9765 24.4875 27.9394 24.8372 27.9266C25.1869 27.9138 25.5817 28.3369 25.3596 28.3516C25.1374 28.3662 23.9365 28.349 23.9365 28.349V27.9765Z" fill="white"/>
<path d="M26.1904 26.8545L25.5946 23.9238C25.5946 23.9238 26.2934 26.3001 26.7028 26.7825C27.112 27.2648 27.7841 27.1938 28.1146 26.9399C27.866 27.2326 27.1791 27.7683 26.1904 26.8545Z" fill="white"/>
<path d="M23.6133 27.4569C23.6133 27.4569 22.0117 27.6236 21.7329 27.0018C21.4543 26.3801 22.7944 24.3647 22.7944 24.3647C22.7944 24.3647 22.3442 25.95 22.4942 26.476C22.6444 27.0018 23.6001 26.9053 23.6001 26.9053L23.6133 27.4569Z" fill="white"/>
<path d="M21.6829 28.23L23.3575 28.3505L21.6794 28.3472L21.6829 28.23Z" fill="white"/>
</g>
<defs>
<clipPath id="clip0_738_637">
<rect width="30" height="30" fill="white" transform="translate(11 14)"/>
</clipPath>
</defs>
</svg>
