<svg width="10" height="14" viewBox="0 0 10 14" fill="none" xmlns="http://www.w3.org/2000/svg">
<path fill-rule="evenodd" clip-rule="evenodd" d="M7.58333 4.95833H8.16667C8.80833 4.95833 9.33333 5.48333 9.33333 6.125V11.9583C9.33333 12.6 8.80833 13.125 8.16667 13.125H1.16667C0.525 13.125 0 12.6 0 11.9583V6.125C0 5.48333 0.525 4.95833 1.16667 4.95833H1.75V3.79167C1.75 2.18167 3.05667 0.875 4.66667 0.875C6.27667 0.875 7.58333 2.18167 7.58333 3.79167V4.95833ZM4.66667 2.04167C3.69833 2.04167 2.91667 2.82333 2.91667 3.79167V4.95833H6.41667V3.79167C6.41667 2.82333 5.635 2.04167 4.66667 2.04167ZM1.16667 11.9583V6.125H8.16667V11.9583H1.16667ZM5.83333 9.04167C5.83333 9.68333 5.30833 10.2083 4.66667 10.2083C4.025 10.2083 3.5 9.68333 3.5 9.04167C3.5 8.4 4.025 7.875 4.66667 7.875C5.30833 7.875 5.83333 8.4 5.83333 9.04167Z" fill="#8692A6"/>
</svg>