<?xml version="1.0" encoding="UTF-8" standalone="no"?>
<svg
   width="30"
   height="30"
   viewBox="0 0 30 30"
   fill="none"
   version="1.1"
   id="svg54"
   sodipodi:docname="menu_einka.svg"
   inkscape:version="1.1.2 (1:1.1+202202050950+0a00cf5339)"
   xmlns:inkscape="http://www.inkscape.org/namespaces/inkscape"
   xmlns:sodipodi="http://sodipodi.sourceforge.net/DTD/sodipodi-0.dtd"
   xmlns="http://www.w3.org/2000/svg"
   xmlns:svg="http://www.w3.org/2000/svg">
  <defs
     id="defs58" />
  <sodipodi:namedview
     id="namedview56"
     pagecolor="#ffffff"
     bordercolor="#999999"
     borderopacity="1"
     inkscape:pageshadow="0"
     inkscape:pageopacity="0"
     inkscape:pagecheckerboard="0"
     showgrid="false"
     width="30px"
     inkscape:zoom="1.7711341"
     inkscape:cx="79.327702"
     inkscape:cy="62.671707"
     inkscape:window-width="1366"
     inkscape:window-height="699"
     inkscape:window-x="0"
     inkscape:window-y="0"
     inkscape:window-maximized="1"
     inkscape:current-layer="svg54" />
  <g
     id="g292"
     transform="matrix(1.0074199,0,0,1.0074199,-0.01328142,-135.62502)">
    <path
       d="m 10.6345,156.321 h 13.4257 c 0.0737,0 0.1474,-0.004 0.221,-0.011 0.0734,-0.007 0.1465,-0.016 0.2193,-0.029 0.0727,-0.013 0.1448,-0.028 0.2164,-0.046 0.0714,-0.019 0.1422,-0.04 0.2119,-0.064 0.0699,-0.024 0.1386,-0.05 0.2064,-0.079 0.0677,-0.03 0.1341,-0.062 0.1993,-0.096 0.0652,-0.035 0.1289,-0.072 0.1912,-0.112 0.0621,-0.04 0.1228,-0.082 0.1816,-0.126 0.0589,-0.045 0.1159,-0.091 0.1711,-0.14 0.0552,-0.05 0.1083,-0.101 0.1594,-0.154 0.0512,-0.053 0.1,-0.108 0.1468,-0.165 0.0467,-0.058 0.0911,-0.116 0.1332,-0.177 0.042,-0.061 0.0815,-0.123 0.1187,-0.187 0.0371,-0.064 0.0717,-0.129 0.1036,-0.195 0.0319,-0.067 0.0611,-0.134 0.0877,-0.203 0.0266,-0.069 0.0503,-0.139 0.0714,-0.21 l 3.0696,-11.513 c 0.0137,-0.047 0.0214,-0.094 0.0231,-0.143 0.0016,-0.048 -0.0027,-0.096 -0.0132,-0.143 -0.0104,-0.047 -0.0266,-0.092 -0.0486,-0.135 -0.0218,-0.044 -0.0487,-0.083 -0.0808,-0.12 -0.0283,-0.037 -0.0606,-0.071 -0.0969,-0.102 -0.0363,-0.03 -0.0757,-0.056 -0.118,-0.077 -0.0423,-0.021 -0.0865,-0.036 -0.1326,-0.047 -0.0461,-0.01 -0.0927,-0.016 -0.14,-0.015 H 6.0162 l -1.55424,-5.833 c -0.01038,-0.032 -0.02322,-0.063 -0.03851,-0.093 -0.01518,-0.03 -0.0327,-0.059 -0.05234,-0.086 -0.01965,-0.027 -0.0413,-0.053 -0.06485,-0.077 -0.02366,-0.024 -0.04888,-0.046 -0.07589,-0.066 -0.02701,-0.02 -0.05547,-0.038 -0.08527,-0.054 -0.02968,-0.016 -0.06049,-0.029 -0.09241,-0.04 -0.03181,-0.011 -0.06428,-0.02 -0.09743,-0.026 -0.03315,-0.006 -0.06652,-0.01 -0.10022,-0.01 H 0.0131836 v 1.263 H 3.38562 l 1.54442,5.766 v 0.039 l 3.06964,11.514 c 0.02366,0.058 0.05837,0.139 0.09029,0.216 l 1.06674,3.982 c -0.0606,0.032 -0.12009,0.066 -0.17846,0.103 -0.05826,0.036 -0.11529,0.074 -0.17109,0.114 -0.0557,0.04 -0.11005,0.082 -0.16295,0.126 -0.0529,0.043 -0.10435,0.089 -0.15424,0.136 -0.04989,0.047 -0.0981,0.096 -0.14464,0.146 -0.04666,0.051 -0.09152,0.103 -0.1346,0.156 -0.04308,0.054 -0.08438,0.109 -0.12377,0.165 -0.0394,0.056 -0.0769,0.113 -0.1125,0.172 -0.0355,0.059 -0.06909,0.119 -0.10056,0.18 -0.03159,0.061 -0.06105,0.123 -0.08839,0.186 -0.02735,0.063 -0.05257,0.126 -0.07567,0.191 -0.02311,0.065 -0.04398,0.13 -0.06262,0.196 -0.01875,0.066 -0.03515,0.133 -0.04933,0.2 -0.01428,0.067 -0.02622,0.135 -0.03582,0.203 -0.00971,0.068 -0.01708,0.136 -0.0221,0.204 -0.00513,0.069 -0.00792,0.137 -0.00837,0.206 v 0.647 h 0.07634 c 0.01886,0.086 0.04129,0.17 0.06719,0.253 0.026,0.084 0.05546,0.166 0.08839,0.247 0.03303,0.081 0.06931,0.16 0.10904,0.238 0.03962,0.078 0.08259,0.154 0.12868,0.228 0.0461,0.074 0.09531,0.146 0.14755,0.217 0.05234,0.07 0.10736,0.137 0.1654,0.203 0.05803,0.065 0.11864,0.128 0.18203,0.188 0.06328,0.06 0.12913,0.118 0.19732,0.172 0.06819,0.055 0.13851,0.107 0.21116,0.155 0.07255,0.049 0.1471,0.094 0.22355,0.137 0.07645,0.042 0.15446,0.081 0.23426,0.117 0.0798,0.036 0.16094,0.068 0.24342,0.097 0.08248,0.029 0.16607,0.054 0.25067,0.076 0.08471,0.021 0.1701,0.039 0.2562,0.054 0.0862,0.015 0.1729,0.025 0.26,0.032 0.087,0.008 0.1743,0.011 0.2617,0.011 0.0501,0 0.1002,-10e-4 0.1503,-0.004 0.0501,-0.002 0.1,-0.006 0.1499,-0.011 0.0499,-0.005 0.0997,-0.011 0.1492,-0.019 0.0497,-0.007 0.099,-0.016 0.1481,-0.026 0.0493,-0.009 0.0981,-0.02 0.1467,-0.033 0.0487,-0.012 0.097,-0.025 0.1449,-0.04 0.048,-0.015 0.0955,-0.031 0.1426,-0.048 0.0472,-0.016 0.094,-0.035 0.1402,-0.054 0.0463,-0.019 0.0921,-0.04 0.1373,-0.061 0.0453,-0.022 0.09,-0.044 0.1341,-0.068 0.0442,-0.024 0.0877,-0.049 0.1306,-0.075 0.043,-0.026 0.0851,-0.053 0.1268,-0.081 0.0416,-0.028 0.0824,-0.057 0.1226,-0.087 0.0401,-0.03 0.0795,-0.061 0.1181,-0.092 0.0386,-0.033 0.0765,-0.065 0.1135,-0.099 0.037,-0.034 0.0731,-0.069 0.1084,-0.104 0.0354,-0.036 0.0697,-0.072 0.1032,-0.11 0.0335,-0.037 0.0661,-0.075 0.0977,-0.114 0.0316,-0.039 0.0621,-0.078 0.0918,-0.119 0.0297,-0.04 0.0583,-0.081 0.086,-0.123 0.0275,-0.042 0.0541,-0.085 0.0797,-0.128 0.0255,-0.043 0.05,-0.087 0.0733,-0.131 0.0233,-0.044 0.0456,-0.089 0.0667,-0.135 0.0212,-0.045 0.0412,-0.091 0.0601,-0.138 0.0188,-0.046 0.0366,-0.093 0.0532,-0.14 0.0165,-0.048 0.0319,-0.095 0.0461,-0.143 0.0143,-0.048 0.0272,-0.097 0.0391,-0.145 0.0118,-0.049 0.0224,-0.098 0.0318,-0.147 0.0095,-0.05 0.0176,-0.099 0.0245,-0.149 0.007,-0.049 0.0127,-0.099 0.0173,-0.149 0.0045,-0.05 0.0077,-0.1 0.0098,-0.15 0.002,-0.05 0.0028,-0.1 0.0024,-0.15 0.0024,-0.162 -0.0085,-0.322 -0.0326,-0.482 -0.0241,-0.16 -0.0612,-0.316 -0.1111,-0.47 -0.05,-0.153 -0.1122,-0.302 -0.1867,-0.445 -0.0744,-0.143 -0.1601,-0.279 -0.2571,-0.409 h 8.5046 c -0.0952,0.13 -0.1794,0.267 -0.2525,0.411 -0.0732,0.143 -0.1344,0.292 -0.1836,0.445 -0.0492,0.153 -0.0858,0.31 -0.1098,0.469 -0.024,0.159 -0.0352,0.32 -0.0334,0.481 -2e-4,0.05 8e-4,0.1 0.0029,0.15 0.0023,0.05 0.0056,0.1 0.0103,0.15 0.0046,0.049 0.0105,0.099 0.0175,0.149 0.0072,0.049 0.0154,0.099 0.0249,0.148 0.0096,0.049 0.0203,0.098 0.0321,0.146 0.012,0.049 0.0252,0.097 0.0394,0.145 0.0143,0.048 0.0297,0.096 0.0464,0.143 0.0166,0.047 0.0343,0.094 0.0533,0.14 0.019,0.047 0.039,0.093 0.0602,0.138 0.0212,0.045 0.0435,0.09 0.0668,0.134 0.0234,0.045 0.0479,0.088 0.0734,0.131 0.0255,0.043 0.0521,0.086 0.0797,0.128 0.0276,0.041 0.0563,0.082 0.0859,0.123 0.0297,0.04 0.0602,0.08 0.0918,0.119 0.0316,0.038 0.0641,0.076 0.0976,0.114 0.0334,0.037 0.0678,0.073 0.103,0.109 0.0352,0.035 0.0714,0.07 0.1083,0.104 0.037,0.034 0.0747,0.066 0.1133,0.098 0.0385,0.032 0.0778,0.063 0.118,0.093 0.0401,0.03 0.0808,0.059 0.1223,0.087 0.0415,0.028 0.0837,0.055 0.1266,0.081 0.0427,0.026 0.0863,0.051 0.1302,0.075 0.0441,0.023 0.0888,0.046 0.134,0.068 0.045,0.021 0.0908,0.042 0.1369,0.061 0.0462,0.02 0.0929,0.038 0.14,0.055 0.0469,0.017 0.0945,0.033 0.1422,0.047 0.0479,0.015 0.0961,0.029 0.1447,0.041 0.0484,0.012 0.0973,0.024 0.1463,0.033 0.0491,0.01 0.0983,0.019 0.1479,0.027 0.0495,0.007 0.0991,0.014 0.149,0.019 0.0498,0.005 0.0996,0.009 0.1496,0.011 0.05,0.003 0.1,0.004 0.1502,0.005 0.0873,0 0.1745,-0.004 0.2616,-0.012 0.0869,-0.007 0.1735,-0.018 0.2597,-0.032 0.086,-0.015 0.1714,-0.033 0.2559,-0.055 0.0846,-0.022 0.1681,-0.048 0.2504,-0.076 0.0825,-0.029 0.1635,-0.062 0.2432,-0.098 0.0797,-0.035 0.1577,-0.074 0.2341,-0.117 0.0763,-0.042 0.1509,-0.088 0.2233,-0.136 0.0725,-0.049 0.1429,-0.101 0.211,-0.155 0.0682,-0.055 0.134,-0.112 0.1973,-0.172 0.0632,-0.061 0.124,-0.123 0.182,-0.189 0.0579,-0.065 0.1132,-0.132 0.1654,-0.202 0.0523,-0.07 0.1016,-0.142 0.1478,-0.217 0.0462,-0.074 0.0891,-0.15 0.1289,-0.227 0.0398,-0.078 0.0762,-0.157 0.1093,-0.238 0.0331,-0.081 0.0627,-0.163 0.0889,-0.246 0.0261,-0.084 0.0486,-0.168 0.0677,-0.253 h 0.0764 v -0.647 c -5e-4,-0.051 -0.0022,-0.101 -0.0051,-0.152 -0.0029,-0.05 -0.007,-0.1 -0.0125,-0.15 -0.0053,-0.051 -0.0119,-0.101 -0.0197,-0.15 -0.0078,-0.05 -0.0169,-0.1 -0.027,-0.149 -0.0103,-0.05 -0.0218,-0.099 -0.0344,-0.148 -0.0126,-0.049 -0.0264,-0.097 -0.0415,-0.145 -0.015,-0.048 -0.0312,-0.096 -0.0486,-0.144 -0.0173,-0.047 -0.0358,-0.094 -0.0554,-0.14 -0.0197,-0.047 -0.0404,-0.093 -0.0623,-0.138 -0.0219,-0.046 -0.0449,-0.091 -0.069,-0.135 -0.0241,-0.044 -0.0492,-0.088 -0.0754,-0.131 -0.0263,-0.043 -0.0535,-0.086 -0.0818,-0.128 -0.0283,-0.041 -0.0576,-0.082 -0.0879,-0.123 -0.0303,-0.04 -0.0616,-0.08 -0.0938,-0.118 -0.0323,-0.039 -0.0654,-0.077 -0.0995,-0.115 -0.0341,-0.037 -0.0691,-0.073 -0.105,-0.109 -0.0358,-0.035 -0.0725,-0.07 -0.1102,-0.103 -0.0375,-0.034 -0.0758,-0.067 -0.115,-0.099 -0.0392,-0.032 -0.079,-0.062 -0.1198,-0.092 -0.0406,-0.03 -0.082,-0.059 -0.1241,-0.087 -0.0421,-0.028 -0.0848,-0.055 -0.1282,-0.08 -0.0433,-0.026 -0.0874,-0.051 -0.1319,-0.074 -0.0447,-0.024 -0.0898,-0.046 -0.1355,-0.068 -0.0457,-0.021 -0.0919,-0.042 -0.1386,-0.061 -0.0467,-0.019 -0.0938,-0.037 -0.1413,-0.054 -0.0477,-0.017 -0.0956,-0.032 -0.1439,-0.047 -0.0484,-0.014 -0.0971,-0.028 -0.146,-0.04 -0.049,-0.012 -0.0983,-0.023 -0.1478,-0.033 -0.0495,-0.009 -0.0993,-0.018 -0.1492,-0.025 -0.05,-0.007 -0.1,-0.013 -0.1503,-0.018 -0.0502,-0.005 -0.1005,-0.009 -0.1509,-0.011 -0.0504,-0.003 -0.1009,-0.004 -0.1513,-0.004 H 10.6345 c -0.0931,0 -0.1791,0.02 -0.2694,0.027 l -0.52926,-1.979 c 0.25906,0.087 0.52526,0.132 0.79866,0.134 z m 0,6.727 c -0.0595,0 -0.1189,-0.004 -0.178,-0.01 -0.0592,-0.006 -0.1179,-0.016 -0.1761,-0.028 -0.0583,-0.012 -0.1158,-0.027 -0.1726,-0.044 -0.0568,-0.018 -0.11259,-0.039 -0.16738,-0.062 -0.0548,-0.023 -0.10837,-0.049 -0.16061,-0.077 -0.05234,-0.029 -0.10301,-0.06 -0.15234,-0.093 -0.04922,-0.033 -0.09665,-0.069 -0.14241,-0.107 -0.04576,-0.038 -0.08951,-0.078 -0.13136,-0.121 -0.04186,-0.042 -0.08148,-0.086 -0.11898,-0.133 -0.0375,-0.046 -0.07254,-0.094 -0.10535,-0.143 -0.03282,-0.05 -0.06306,-0.101 -0.09085,-0.154 -0.02779,-0.052 -0.0529,-0.106 -0.07545,-0.161 -0.02254,-0.055 -0.0423,-0.111 -0.05926,-0.168 -0.01708,-0.057 -0.03125,-0.115 -0.04264,-0.173 -0.01138,-0.059 -0.01986,-0.118 -0.02544,-0.177 -0.00569,-0.059 -0.00837,-0.118 -0.00815,-0.178 2.2e-4,-0.059 0.00324,-0.119 0.00926,-0.178 0.00603,-0.059 0.01496,-0.118 0.02668,-0.176 0.01172,-0.059 0.02634,-0.116 0.04375,-0.173 0.01741,-0.057 0.0375,-0.113 0.06038,-0.168 0.02288,-0.055 0.04844,-0.108 0.07656,-0.161 0.02813,-0.052 0.05871,-0.103 0.09185,-0.153 0.03304,-0.049 0.06853,-0.097 0.10636,-0.143 0.03773,-0.046 0.07768,-0.09 0.11976,-0.132 0.04207,-0.042 0.08616,-0.082 0.13214,-0.119 0.04598,-0.038 0.09375,-0.074 0.14319,-0.107 0.04945,-0.033 0.10045,-0.063 0.15291,-0.091 0.05245,-0.028 0.10613,-0.054 0.16116,-0.077 0.05492,-0.023 0.11082,-0.043 0.16772,-0.06 0.0569,-0.017 0.1145,-0.032 0.1729,-0.044 0.0584,-0.011 0.1171,-0.02 0.1763,-0.026 0.0592,-0.006 0.1186,-0.009 0.1781,-0.009 0.0596,-10e-4 0.1188,0.002 0.1781,0.008 0.0592,0.006 0.1181,0.014 0.1764,0.026 0.0585,0.011 0.1162,0.025 0.1731,0.042 0.0571,0.017 0.1131,0.037 0.1682,0.06 0.055,0.022 0.1088,0.047 0.1615,0.075 0.0526,0.028 0.1037,0.058 0.1534,0.091 0.0495,0.033 0.0975,0.068 0.1437,0.106 0.0461,0.037 0.0904,0.077 0.1327,0.119 0.0423,0.041 0.0825,0.085 0.1204,0.131 0.0381,0.046 0.0738,0.093 0.1072,0.143 0.0334,0.049 0.0643,0.1 0.0926,0.152 0.0284,0.052 0.0542,0.106 0.0774,0.161 0.0231,0.054 0.0435,0.11 0.0612,0.167 0.0177,0.057 0.0326,0.114 0.0447,0.173 0.012,0.058 0.0212,0.117 0.0274,0.176 0.0064,0.059 0.0097,0.118 0.0103,0.178 -10e-5,0.03 -9e-4,0.06 -0.0025,0.09 -0.0014,0.03 -0.0037,0.06 -0.0068,0.09 -0.003,0.03 -0.0067,0.06 -0.0111,0.09 -0.0045,0.029 -0.0097,0.059 -0.0156,0.088 -0.006,0.03 -0.0127,0.059 -0.0199,0.089 -0.0074,0.029 -0.0155,0.058 -0.0242,0.087 -0.0088,0.028 -0.0183,0.057 -0.0285,0.085 -0.0101,0.029 -0.0211,0.057 -0.0326,0.084 -0.0115,0.028 -0.0238,0.056 -0.0366,0.083 -0.0129,0.027 -0.0264,0.054 -0.0407,0.08 -0.0142,0.027 -0.029,0.053 -0.0446,0.079 -0.0155,0.026 -0.0315,0.051 -0.0483,0.076 -0.0167,0.025 -0.034,0.05 -0.052,0.074 -0.018,0.024 -0.0365,0.048 -0.0556,0.071 -0.0191,0.024 -0.0387,0.046 -0.0589,0.069 -0.0202,0.022 -0.041,0.044 -0.0623,0.065 -0.0213,0.021 -0.0431,0.042 -0.0654,0.062 -0.0222,0.021 -0.0451,0.04 -0.0683,0.059 -0.0232,0.019 -0.047,0.038 -0.0711,0.056 -0.0242,0.018 -0.0487,0.035 -0.0737,0.052 -0.0252,0.017 -0.0505,0.033 -0.0764,0.048 -0.0258,0.016 -0.0519,0.031 -0.0784,0.045 -0.0266,0.014 -0.0534,0.028 -0.0806,0.041 -0.0273,0.013 -0.0547,0.025 -0.0825,0.036 -0.0278,0.012 -0.0559,0.023 -0.0843,0.033 -0.0282,0.01 -0.0568,0.02 -0.0856,0.029 -0.0288,0.008 -0.0578,0.016 -0.087,0.024 -0.0292,0.007 -0.0585,0.014 -0.0881,0.02 -0.0294,0.006 -0.0591,0.011 -0.0889,0.015 -0.0297,0.005 -0.0596,0.009 -0.0895,0.012 -0.0301,0.003 -0.0601,0.005 -0.0901,0.007 -0.03,0.001 -0.0602,0.002 -0.0903,0.002 z m 13.4257,0 c -0.0595,0 -0.1189,-0.004 -0.1782,-0.01 -0.0591,-0.007 -0.1178,-0.016 -0.1762,-0.028 -0.0582,-0.013 -0.1157,-0.027 -0.1725,-0.045 -0.0568,-0.018 -0.1126,-0.039 -0.1674,-0.062 -0.0548,-0.023 -0.1084,-0.049 -0.1606,-0.078 -0.0523,-0.028 -0.1031,-0.059 -0.1523,-0.093 -0.0492,-0.033 -0.0966,-0.069 -0.1423,-0.107 -0.0457,-0.039 -0.0895,-0.079 -0.1312,-0.121 -0.0418,-0.043 -0.0814,-0.087 -0.1188,-0.133 -0.0374,-0.047 -0.0724,-0.095 -0.1051,-0.145 -0.0327,-0.049 -0.063,-0.101 -0.0906,-0.153 -0.0277,-0.053 -0.0527,-0.107 -0.0751,-0.162 -0.0224,-0.055 -0.042,-0.111 -0.059,-0.168 -0.0168,-0.057 -0.0309,-0.115 -0.0422,-0.174 -0.0112,-0.058 -0.0196,-0.117 -0.0251,-0.176 -0.0054,-0.06 -0.008,-0.119 -0.0077,-0.179 4e-4,-0.059 0.0037,-0.118 0.0099,-0.178 0.0061,-0.059 0.0151,-0.118 0.0271,-0.176 0.0119,-0.058 0.0266,-0.116 0.0442,-0.173 0.0176,-0.057 0.0378,-0.113 0.0609,-0.167 0.023,-0.055 0.0487,-0.109 0.077,-0.161 0.0283,-0.053 0.0591,-0.104 0.0923,-0.153 0.0334,-0.049 0.069,-0.097 0.1069,-0.143 0.038,-0.046 0.078,-0.09 0.1202,-0.132 0.0423,-0.042 0.0865,-0.081 0.1326,-0.119 0.0462,-0.038 0.0941,-0.073 0.1437,-0.106 0.0496,-0.033 0.1006,-0.063 0.1533,-0.091 0.0526,-0.028 0.1064,-0.053 0.1614,-0.076 0.0551,-0.023 0.1112,-0.043 0.1682,-0.06 0.0569,-0.017 0.1147,-0.031 0.1731,-0.043 0.0584,-0.011 0.1173,-0.02 0.1765,-0.026 0.0593,-0.005 0.1187,-0.008 0.1782,-0.008 0.0596,0 0.1189,0.003 0.1782,0.009 0.0593,0.005 0.1181,0.014 0.1765,0.026 0.0583,0.011 0.116,0.026 0.1731,0.043 0.0569,0.018 0.1129,0.038 0.1679,0.06 0.0551,0.023 0.1089,0.049 0.1614,0.077 0.0525,0.028 0.1035,0.058 0.153,0.091 0.0496,0.033 0.0974,0.069 0.1434,0.106 0.0461,0.038 0.0902,0.078 0.1324,0.12 0.0422,0.042 0.0822,0.086 0.1201,0.132 0.0378,0.046 0.0733,0.094 0.1065,0.143 0.0332,0.049 0.0639,0.1 0.0921,0.153 0.0282,0.052 0.0537,0.106 0.0766,0.161 0.023,0.055 0.0432,0.111 0.0606,0.168 0.0174,0.057 0.0322,0.114 0.0439,0.173 0.0118,0.058 0.0207,0.117 0.0268,0.176 0.006,0.059 0.0092,0.119 0.0095,0.178 -6e-4,0.06 -0.0041,0.12 -0.0104,0.18 -0.0065,0.06 -0.0158,0.119 -0.0279,0.178 -0.0122,0.059 -0.0271,0.117 -0.045,0.174 -0.0177,0.057 -0.0384,0.114 -0.0617,0.169 -0.0233,0.056 -0.0492,0.11 -0.0779,0.163 -0.0286,0.052 -0.0596,0.104 -0.0932,0.154 -0.0337,0.049 -0.0697,0.097 -0.1079,0.144 -0.0383,0.046 -0.0787,0.09 -0.1214,0.133 -0.0426,0.042 -0.0871,0.082 -0.1337,0.12 -0.0465,0.038 -0.0947,0.074 -0.1447,0.107 -0.0501,0.034 -0.1016,0.065 -0.1546,0.093 -0.053,0.028 -0.1072,0.054 -0.1628,0.077 -0.0555,0.023 -0.112,0.043 -0.1694,0.061 -0.0576,0.017 -0.1158,0.032 -0.1747,0.044 -0.0589,0.012 -0.1183,0.021 -0.1781,0.027 -0.0597,0.006 -0.1197,0.009 -0.1798,0.009 z m 1.4264,-9.047 c -0.0115,0.038 -0.0244,0.075 -0.0388,0.112 -0.0145,0.037 -0.0304,0.073 -0.0478,0.109 -0.0173,0.035 -0.036,0.07 -0.0561,0.104 -0.0201,0.034 -0.0415,0.067 -0.0643,0.1 -0.0228,0.032 -0.0468,0.063 -0.0721,0.094 -0.0252,0.03 -0.0517,0.06 -0.0792,0.088 -0.0277,0.028 -0.0564,0.055 -0.0862,0.081 -0.0297,0.027 -0.0605,0.051 -0.0922,0.075 -0.0318,0.024 -0.0644,0.046 -0.098,0.067 -0.0335,0.021 -0.0678,0.04 -0.1029,0.059 -0.0351,0.018 -0.0709,0.035 -0.1074,0.05 -0.0363,0.016 -0.0734,0.03 -0.1109,0.042 -0.0375,0.012 -0.0756,0.023 -0.1139,0.033 -0.0384,0.009 -0.0772,0.017 -0.1162,0.024 -0.0391,0.006 -0.0784,0.011 -0.1178,0.014 -0.0394,0.003 -0.0789,0.005 -0.1185,0.005 h -0.7666 c 0.0901,-0.259 0.1643,-0.522 0.2222,-0.79 l 1.9057,-10.984 h 2.9501 z m -3.2113,0.054 c -0.111,0.607 -0.4069,1.003 -0.6666,1.003 h -1.7168 c 0.0305,-0.247 0.0736,-0.529 0.0958,-0.865 l 0.6946,-10.909 h 3.4487 z m -2.8542,-10.771 -0.6639,10.823 c 0.0082,0.323 -0.0335,0.64 -0.125,0.951 H 16.064 c -0.0919,-0.311 -0.1382,-0.628 -0.139,-0.951 l -0.6513,-10.823 z m -5.417,0 0.6945,10.909 c 0.0236,0.336 0.0639,0.618 0.0833,0.865 h -1.6945 c -0.2528,0 -0.5639,-0.396 -0.6584,-1.003 l -1.8708,-10.771 z m -4.73489,0 1.91119,10.982 c 0.0556,0.292 0.1486,0.556 0.2069,0.792 h -0.7528 c -0.0737,-0.002 -0.1468,-0.009 -0.2193,-0.021 -0.0727,-0.013 -0.1439,-0.031 -0.2138,-0.054 -0.07,-0.023 -0.1379,-0.051 -0.20373,-0.084 -0.06585,-0.033 -0.12879,-0.071 -0.18906,-0.113 -0.06016,-0.043 -0.11697,-0.089 -0.1702,-0.14 -0.05335,-0.051 -0.10257,-0.105 -0.14788,-0.164 -0.0452,-0.058 -0.08594,-0.119 -0.1221,-0.183 -0.03616,-0.064 -0.06741,-0.131 -0.09364,-0.199 l -1.5279,-5.711 H 7.72323 l -0.01518,-0.058 h 0.00826 l -1.38895,-5.038 z"
       fill="#c7c7c7"
       id="path50" />
  </g>
</svg>
