<?xml version="1.0" encoding="UTF-8" standalone="no"?>
<svg
   width="30"
   height="30"
   viewBox="0 0 30 30"
   fill="none"
   version="1.1"
   id="svg54"
   sodipodi:docname="menu_einst.svg"
   inkscape:version="1.1.2 (1:1.1+202202050950+0a00cf5339)"
   xmlns:inkscape="http://www.inkscape.org/namespaces/inkscape"
   xmlns:sodipodi="http://sodipodi.sourceforge.net/DTD/sodipodi-0.dtd"
   xmlns="http://www.w3.org/2000/svg"
   xmlns:svg="http://www.w3.org/2000/svg">
  <defs
     id="defs58" />
  <sodipodi:namedview
     id="namedview56"
     pagecolor="#ffffff"
     bordercolor="#999999"
     borderopacity="1"
     inkscape:pageshadow="0"
     inkscape:pageopacity="0"
     inkscape:pagecheckerboard="0"
     showgrid="false"
     width="30px"
     inkscape:zoom="1.7711341"
     inkscape:cx="79.327702"
     inkscape:cy="62.671707"
     inkscape:window-width="1366"
     inkscape:window-height="699"
     inkscape:window-x="0"
     inkscape:window-y="0"
     inkscape:window-maximized="1"
     inkscape:current-layer="svg54" />
  <g
     id="g295"
     transform="translate(0,-180)">
    <path
       d="m 15,202.5 c -4.135,0 -7.5,-3.365 -7.5,-7.5 0,-4.135 3.365,-7.5 7.5,-7.5 4.135,0 7.5,3.365 7.5,7.5 0,4.135 -3.365,7.5 -7.5,7.5 z m 14.4643,-4.821 c 0.2951,0 0.5357,-0.241 0.5357,-0.536 v -4.286 c 0,-0.295 -0.2406,-0.536 -0.5336,-0.536 h -2.9213 c -0.6634,0 -1.262,-0.414 -1.488,-1.031 -0.0962,-0.262 -0.2029,-0.517 -0.32,-0.768 -0.2763,-0.601 -0.1445,-1.323 0.3264,-1.796 l 2.0549,-2.059 c 0.1047,-0.105 0.1612,-0.238 0.1612,-0.381 0,-0.142 -0.0565,-0.276 -0.1569,-0.376 l -3.0302,-3.028 c -0.1025,-0.105 -0.2365,-0.162 -0.3788,-0.162 -0.1423,0 -0.2762,0.057 -0.3766,0.157 l -2.0634,2.059 c -0.4729,0.473 -1.1949,0.603 -1.7955,0.327 -0.249,-0.115 -0.5022,-0.222 -0.7596,-0.316 -0.6215,-0.23 -1.04,-0.833 -1.04,-1.5 v -2.911 c 0,-0.295 -0.2407,-0.536 -0.5357,-0.536 h -4.2858 c -0.295,0 -0.5357,0.241 -0.5357,0.534 v 2.919 c 0,0.663 -0.4164,1.264 -1.0338,1.492 -0.2594,0.096 -0.5168,0.201 -0.7658,0.318 -0.60059,0.276 -1.32258,0.146 -1.79546,-0.327 L 6.66719,182.882 C 6.5625,182.777 6.42857,182.72 6.28627,182.72 c -0.1423,0 -0.27623,0.057 -0.37667,0.157 l -3.03014,3.03 c -0.10256,0.103 -0.15904,0.237 -0.15904,0.379 0,0.143 0.05648,0.276 0.15692,0.377 l 2.05916,2.063 c 0.47087,0.473 0.60267,1.195 0.32645,1.796 -0.11507,0.249 -0.22177,0.502 -0.31596,0.761 -0.23014,0.62 -0.83282,1.038 -1.50045,1.038 H 0.535714 C 0.240625,192.321 0,192.562 0,192.857 v 4.286 c 0,0.295 0.240625,0.536 0.533594,0.536 H 3.44654 c 0.66763,0 1.27031,0.418 1.50045,1.038 0.09419,0.259 0.20089,0.512 0.31596,0.761 0.27622,0.601 0.14442,1.323 -0.32645,1.796 l -2.05492,2.059 c -0.10468,0.105 -0.16116,0.238 -0.16116,0.381 0,0.142 0.05648,0.276 0.15904,0.376 l 3.02802,3.031 c 0.10256,0.102 0.23649,0.159 0.37879,0.159 0.1423,0 0.27623,-0.057 0.37668,-0.157 l 2.06339,-2.059 c 0.30759,-0.308 0.71987,-0.469 1.13627,-0.469 0.22389,0 0.44779,0.046 0.65919,0.142 0.249,0.115 0.5022,0.222 0.7596,0.316 0.6215,0.23 1.04,0.833 1.04,1.5 v 2.911 c 0,0.295 0.2407,0.536 0.5357,0.536 h 4.2858 c 0.295,0 0.5357,-0.241 0.5357,-0.534 v -2.917 c 0,-0.665 0.4164,-1.266 1.0358,-1.494 0.2595,-0.096 0.5148,-0.201 0.7638,-0.318 0.6006,-0.276 1.3226,-0.144 1.7955,0.327 l 2.0591,2.054 c 0.1047,0.105 0.2386,0.162 0.3809,0.162 0.1423,0 0.2763,-0.057 0.3767,-0.157 l 3.028,-3.03 c 0.1047,-0.103 0.1612,-0.237 0.1612,-0.379 0,-0.143 -0.0565,-0.276 -0.1569,-0.377 l -2.0592,-2.063 c -0.4709,-0.473 -0.6027,-1.195 -0.3264,-1.796 0.115,-0.249 0.2217,-0.502 0.3159,-0.761 0.2301,-0.62 0.8328,-1.038 1.5005,-1.038 z"
       fill="#c7c7c7"
       id="path52" />
  </g>
</svg>
