<?xml version="1.0" encoding="UTF-8" standalone="no"?>
<svg
   width="30"
   height="30"
   viewBox="0 0 30 30"
   fill="none"
   version="1.1"
   id="svg54"
   sodipodi:docname="menu_aktiv.svg"
   inkscape:version="1.1.2 (1:1.1+202202050950+0a00cf5339)"
   xmlns:inkscape="http://www.inkscape.org/namespaces/inkscape"
   xmlns:sodipodi="http://sodipodi.sourceforge.net/DTD/sodipodi-0.dtd"
   xmlns="http://www.w3.org/2000/svg"
   xmlns:svg="http://www.w3.org/2000/svg">
  <defs
     id="defs58" />
  <sodipodi:namedview
     id="namedview56"
     pagecolor="#ffffff"
     bordercolor="#999999"
     borderopacity="1"
     inkscape:pageshadow="0"
     inkscape:pageopacity="0"
     inkscape:pagecheckerboard="0"
     showgrid="false"
     width="30px"
     inkscape:zoom="10.019047"
     inkscape:cx="2.644962"
     inkscape:cy="19.862168"
     inkscape:window-width="1366"
     inkscape:window-height="699"
     inkscape:window-x="0"
     inkscape:window-y="0"
     inkscape:window-maximized="1"
     inkscape:current-layer="svg54" />
  <g
     id="g280"
     transform="matrix(1.0019149,0,0,1.0019149,-0.01603894,-45.126287)">
    <path
       d="m 28.8549,63.8338 c 0,6.1574 -4.9912,11.1489 -11.1482,11.1489 -6.1571,0 -11.14835,-4.9915 -11.14835,-11.1489 0,-6.1574 4.99125,-11.149 11.14835,-11.149 6.157,0 11.1482,4.9916 11.1482,11.149 z"
       fill="#c7c7c7"
       id="path18" />
    <path
       d="m 11.0077,72.7154 c 0.0128,0.0083 0.0256,0.0164 0.0385,0.0234 0.4252,-0.7301 1.6901,-1.6752 0.9823,-2.6353 -0.2068,-0.2804 -0.5432,-0.4242 -0.8539,-0.5795 -1.0828,-0.5385 -2.07329,-1.4041 -2.41905,-2.563 -0.34464,-1.1575 0.15536,-2.605 1.28495,-3.0337 0.7604,-0.2874 1.6784,-0.1015 2.3583,-0.5478 0.8457,-0.5548 0.8889,-1.7581 1.3562,-2.6564 0.097,-0.1857 0.2219,-0.368 0.4077,-0.465 0.2406,-0.1237 0.5279,-0.0805 0.7977,-0.0525 0.9427,0.097 1.9099,-0.0526 2.7801,-0.4276 0.4077,-0.1752 0.8586,-0.5408 0.7336,-0.9661 -0.0492,-0.1705 -1.9823,-0.8434 -3.5686,-1.4776 -2.029,-0.8119 -2.0079,-1.9018 -1.6411,-3.7276 -3.94702,1.7159 -6.70605,5.6492 -6.70605,10.2272 0,3.2429 1.57578,7.1246 4.44935,8.8815 z"
       fill="white"
       id="path20"
       style="fill:#ffffff;stroke:#c7c7c7;stroke-opacity:1;stroke-width:0.10180505;stroke-miterlimit:4;stroke-dasharray:none" />
    <path
       d="m 25.5517,63.591 c -0.6962,-0.2372 -1.4636,-0.4848 -2.2101,-0.382 -0.3504,0.0478 -0.7966,0.1974 -1.0501,0.4532 -0.2207,0.222 -0.1787,0.5035 -0.1039,0.7838 0.1951,0.736 0.6307,1.3913 0.7464,2.1507 0.1262,0.8188 -0.1741,1.5886 -0.7149,2.1984 -1.0886,1.2289 -3.1562,1.6401 -3.6211,3.3818 -0.2347,0.8855 -0.0024,1.833 0.3773,2.7335 5.3055,-0.6003 9.4826,-4.9261 9.8517,-10.2997 -1.1191,-0.1705 -2.2276,-0.6635 -3.2753,-1.0197 z"
       fill="white"
       id="path22"
       style="fill:#ffffff;stroke:#c7c7c7;stroke-opacity:1;stroke-width:0.10180505;stroke-miterlimit:4;stroke-dasharray:none" />
    <path
       d="m 26.2782,57.4768 c 0.7405,0.9018 0.9566,1.9485 0.4823,2.3375 -0.473,0.389 -1.4577,-0.028 -2.1983,-0.9299 -0.7394,-0.903 -0.9555,-1.9496 -0.4824,-2.3386 0.4743,-0.3878 1.4577,0.028 2.1984,0.931 z"
       fill="white"
       id="path24"
       style="fill:#ffffff;stroke:#c7c7c7;stroke-opacity:1;stroke-width:0.10180505;stroke-miterlimit:4;stroke-dasharray:none" />
    <path
       d="m 20.9527,53.2456 -5.7283,5.3327 c 0,0 -2.2041,0.2161 -4.8114,0.4988 -2.29531,0.2489 -2.97042,0.3072 -2.97042,0.3072 L 4.43945,52.7737 17.9496,46.635 Z"
       fill="#c7c7c7"
       id="path26" />
    <path
       d="m 10.0755,47.1526 10.5981,-2.1092 c 0.1599,-0.032 0.2569,0.1724 0.1295,0.2751 l -8.4417,6.8384 c -0.0211,0.0175 -0.0455,0.0293 -0.0713,0.0327 L 1.51085,54.0856 C 1.3498,54.1136 1.2585,53.9068 1.38853,53.8076 l 8.62157,-6.6259 c 0.0197,-0.0152 0.0419,-0.0245 0.0654,-0.0291 z"
       fill="#c7c7c7"
       id="path28" />
    <path
       d="m 2.63135,53.546 0.09576,6.0592"
       stroke="#c7c7c7"
       stroke-miterlimit="10"
       stroke-linecap="round"
       stroke-linejoin="round"
       id="path30" />
    <path
       d="m 2.76327,63.0326 -1.6202,0.0257 0.78035,-1.8539 0.78148,-1.8538 1.67734,3.6562 z"
       fill="#c7c7c7"
       id="path32" />
    <path
       d="m 3.51324,59.5105 c 0.0058,0.4136 -0.32355,0.7534 -0.73706,0.7593 -0.41238,0.0071 -0.75223,-0.3224 -0.75926,-0.7348 -0.0058,-0.4135 0.32355,-0.7534 0.73594,-0.7605 0.4135,-0.0069 0.75335,0.3225 0.76038,0.736 z"
       fill="#c7c7c7"
       id="path34" />
  </g>
</svg>
