<svg width="139" height="142" viewBox="0 0 139 142" fill="none" xmlns="http://www.w3.org/2000/svg">
<path d="M21.0734 73.9808C20.7963 73.1947 20.0852 72.6181 19.2332 72.4958L14.8872 71.8538L12.9221 67.8247C12.5427 67.0494 11.7385 66.5515 10.8411 66.5515C9.94371 66.5515 9.13948 67.0494 8.76009 67.8247L6.79495 71.8538L2.44893 72.4958C1.59699 72.6181 0.885906 73.1947 0.608741 73.9808C0.345209 74.7648 0.540587 75.6405 1.14944 76.228L4.35727 79.4054L3.59848 83.9106C3.4599 84.7405 3.82793 85.5834 4.54129 86.0813C5.266 86.5683 6.20882 86.612 6.97897 86.2036L10.8411 84.1443L14.7032 86.2036C15.0485 86.3914 15.4279 86.4788 15.8187 86.4788C16.2799 86.4788 16.7388 86.3456 17.1409 86.0813C17.8542 85.5834 18.2223 84.7405 18.0837 83.9106L17.3249 79.4054L20.5327 76.228C21.1416 75.6405 21.337 74.7648 21.0734 73.9808ZM13.222 77.1124C12.7154 77.6103 12.4723 78.3201 12.5995 79.0167L12.7835 80.1239L11.9566 79.6806C11.6112 79.4928 11.2205 79.4054 10.8411 79.4054C10.4617 79.4054 10.0709 79.4928 9.72562 79.6806L8.89867 80.1239L9.08269 79.0167C9.20764 78.3201 8.97818 77.6103 8.4602 77.1124L7.5651 76.228L8.70329 76.062C9.46208 75.9397 10.105 75.4746 10.439 74.8107L10.8411 73.9808L11.2432 74.8107C11.5772 75.4746 12.2201 75.9397 12.9789 76.062L14.1171 76.228L13.222 77.1124Z" fill="#2C3D53"/>
<path d="M13.2223 77.1125C12.7157 77.6104 12.4726 78.3202 12.5998 79.0168L12.7838 80.124L11.9569 79.6807C11.6116 79.4929 11.2208 79.4055 10.8414 79.4055C10.462 79.4055 10.0713 79.4929 9.72595 79.6807L8.899 80.124L9.08302 79.0168C9.20797 78.3202 8.97851 77.6104 8.46053 77.1125L7.56543 76.2281L8.70362 76.0621C9.46241 75.9398 10.1053 75.4747 10.4393 74.8108L10.8414 73.9788L11.2435 74.8108C11.5775 75.4747 12.2204 75.9398 12.9792 76.0621L14.1174 76.2281L13.2223 77.1125Z" fill="#FCD965"/>
<path d="M138.343 73.9786C138.066 73.1925 137.353 72.6181 136.503 72.4958L132.157 71.8538L130.192 67.8247C129.813 67.0494 129.006 66.5515 128.109 66.5515C127.214 66.5515 126.409 67.0494 126.03 67.8247L124.063 71.8538L119.717 72.4958C118.867 72.6181 118.154 73.1925 117.879 73.9786C117.613 74.7648 117.808 75.6405 118.417 76.2258L121.625 79.4032L120.866 83.9106C120.728 84.7404 121.098 85.5812 121.809 86.0813C122.534 86.5683 123.477 86.612 124.247 86.2014L128.109 84.1421L131.973 86.2014C132.319 86.3892 132.698 86.4788 133.089 86.4788C133.548 86.4788 134.007 86.3456 134.411 86.0813C135.124 85.5812 135.49 84.7404 135.354 83.9106L134.593 79.4032L137.8 76.2258C138.412 75.6405 138.607 74.7648 138.343 73.9786ZM130.49 77.1124C129.972 77.6103 129.742 78.3201 129.87 79.0167L130.054 80.1239L129.227 79.6806C128.879 79.4928 128.488 79.4032 128.109 79.4032C127.729 79.4032 127.339 79.4928 126.996 79.6806L126.166 80.1239L126.35 79.0167C126.478 78.3201 126.237 77.6103 125.73 77.1124L124.833 76.2258L125.971 76.0598C126.73 75.9397 127.375 75.4746 127.707 74.8107L128.109 73.9786L128.513 74.8107C128.847 75.4746 129.49 75.9397 130.249 76.0598L131.387 76.2258L130.49 77.1124Z" fill="#2C3D53"/>
<path d="M130.49 77.1125C129.972 77.6104 129.742 78.3202 129.87 79.0168L130.054 80.124L129.224 79.6807C128.879 79.4929 128.488 79.4055 128.111 79.4055C127.73 79.4055 127.339 79.4929 126.994 79.6807L126.167 80.124L126.351 79.0168C126.478 78.3202 126.237 77.6104 125.73 77.1125L124.833 76.2281L125.971 76.0621C126.73 75.9398 127.373 75.4747 127.707 74.8086L128.111 73.9788L128.511 74.8086C128.845 75.4747 129.49 75.9398 130.249 76.0621L131.387 76.2281L130.49 77.1125Z" fill="#FCD965"/>
<path d="M8.71024 25.5877L10.8412 24.4521L12.9745 25.5877L12.5655 23.1834L14.2899 21.4822L11.9067 21.1306L10.8412 18.9446L9.77573 21.1306L7.39258 21.4822L9.1169 23.1834L8.71024 25.5877Z" fill="#2C3D53"/>
<path d="M126.055 25.5877L128.188 24.4521L130.319 25.5877L129.913 23.1834L131.637 21.48L129.254 21.1306L128.188 18.9446L127.123 21.1306L124.74 21.48L126.464 23.1834L126.055 25.5877Z" fill="#2C3D53"/>
<path d="M11.9067 95.3081L10.8412 93.1221L9.77573 95.3081L7.39258 95.6597L9.1169 97.3608L8.71024 99.7652L10.8412 98.6296L12.9745 99.7652L12.5655 97.3608L14.2899 95.6597L11.9067 95.3081Z" fill="#2C3D53"/>
<path d="M129.179 95.3081L128.113 93.1221L127.048 95.3081L124.665 95.6597L126.389 97.3608L125.982 99.7652L128.113 98.6296L130.246 99.7652L129.838 97.3608L131.564 95.6597L129.179 95.3081Z" fill="#2C3D53"/>
<path d="M69.4749 22.2661C70.7448 22.2661 71.774 21.266 71.774 20.0299V2.35635C71.774 1.1225 70.7448 0.122314 69.4749 0.122314C68.2049 0.122314 67.1758 1.1225 67.1758 2.35635V20.0299C67.1758 21.266 68.2049 22.2661 69.4749 22.2661Z" fill="#2C3D53"/>
<path d="M82.6245 23.5065C82.8494 23.572 83.0766 23.6048 83.3015 23.6048C84.2852 23.6048 85.194 22.9933 85.4984 22.0412L89.1083 10.7312C89.4809 9.5629 88.7994 8.3225 87.5862 7.96435C86.3731 7.60621 85.0849 8.26135 84.7123 9.42969L81.1024 20.7375C80.7275 21.908 81.4091 23.1462 82.6245 23.5065Z" fill="#2C3D53"/>
<path d="M94.8853 28.2694C95.2533 28.4769 95.6554 28.5774 96.053 28.5774C96.839 28.5774 97.6046 28.1864 98.034 27.4876L107.233 12.4958C107.878 11.441 107.517 10.0827 106.422 9.46247C105.329 8.84009 103.92 9.1895 103.273 10.2421L94.0742 25.2361C93.429 26.2887 93.7925 27.647 94.8853 28.2694Z" fill="#2C3D53"/>
<path d="M105.163 35.5916C105.613 36.1769 106.306 36.487 107.01 36.487C107.488 36.487 107.967 36.3451 108.378 36.0502L117.936 29.2215C118.956 28.4921 119.167 27.1054 118.411 26.1227C117.654 25.1399 116.214 24.9347 115.196 25.6662L105.638 32.495C104.618 33.2222 104.407 34.6089 105.163 35.5916Z" fill="#2C3D53"/>
<path d="M133.345 34.8361C132.723 33.7726 131.319 33.3969 130.215 33.9953L114.282 42.6541C113.176 43.2547 112.785 44.6043 113.41 45.67C113.833 46.3928 114.612 46.7968 115.416 46.7968C115.798 46.7968 116.186 46.7051 116.543 46.5107L132.473 37.8541C133.579 37.2514 133.97 35.9018 133.345 34.8361Z" fill="#2C3D53"/>
<path d="M132.216 52.1078L121.35 54.4248C120.11 54.6891 119.328 55.8705 119.603 57.065C119.839 58.098 120.789 58.8012 121.845 58.8012C122.009 58.8012 122.177 58.7837 122.345 58.7488L133.209 56.4317C134.449 56.1675 135.233 54.9861 134.958 53.7915C134.683 52.597 133.457 51.8457 132.216 52.1078Z" fill="#2C3D53"/>
<path d="M53.4539 22.2966C53.7516 23.2553 54.6648 23.8733 55.6531 23.8733C55.8734 23.8733 56.0961 23.8428 56.3165 23.7794C57.5319 23.4278 58.2225 22.194 57.8568 21.0235L54.2468 9.44272C53.881 8.2722 52.5997 7.60614 51.3843 7.95992C50.1666 8.31151 49.4782 9.54536 49.8417 10.7159L53.4539 22.2966Z" fill="#2C3D53"/>
<path d="M40.9091 27.8567C41.3339 28.5687 42.1086 28.9661 42.9015 28.9661C43.2922 28.9661 43.6875 28.87 44.0488 28.6691C45.1483 28.0577 45.5255 26.7037 44.8916 25.6445L35.6952 10.2924C35.0591 9.23322 33.6528 8.86852 32.5533 9.48217C31.4537 10.0915 31.0766 11.4476 31.7104 12.5046L40.9091 27.8567Z" fill="#2C3D53"/>
<path d="M21.0011 29.6212L30.5564 36.6116C30.9722 36.9151 31.4606 37.0636 31.9468 37.0636C32.6397 37.0636 33.3258 36.7601 33.7779 36.1879C34.5458 35.2139 34.3504 33.825 33.3394 33.0847L23.7818 26.0943C22.7709 25.354 21.3282 25.544 20.5604 26.518C19.7925 27.492 19.9901 28.8809 21.0011 29.6212Z" fill="#2C3D53"/>
<path d="M24.6928 43.4862L8.76265 34.6221C7.66081 34.0106 6.25454 34.3731 5.6207 35.4323C4.98459 36.4914 5.36171 37.8454 6.46128 38.4568L22.3914 47.3187C22.7549 47.5218 23.1502 47.6179 23.5409 47.6179C24.3338 47.6179 25.1085 47.2205 25.5333 46.5107C26.1695 45.4516 25.7923 44.0976 24.6928 43.4862Z" fill="#2C3D53"/>
<path d="M5.734 57.4822C5.734 57.4822 16.9432 59.9084 17.1113 59.9084C18.1609 59.9084 19.1083 59.2118 19.3514 58.1832C19.6308 56.9909 18.8538 55.8029 17.6157 55.5343L6.74951 53.1627C5.51135 52.8962 4.28002 53.6409 4.00058 54.8333C3.71888 56.0278 4.49584 57.2136 5.734 57.4822Z" fill="#2C3D53"/>
<path d="M91.6184 79.3268C92.1591 78.3965 92.468 77.333 92.468 76.204C92.468 72.7404 89.6169 70.1264 85.8343 70.1264H81.2701C81.386 69.373 81.4428 68.6764 81.386 68.1566C81.1793 66.2742 80.6386 61.3038 76.4425 59.4432C74.0275 58.3688 71.2332 58.7226 69.1976 60.3517C66.5668 62.4765 66.7145 65.3439 66.7849 66.7175C66.7849 66.8835 66.7963 67.7919 66.7963 67.7919C66.3487 68.72 65.1742 70.6025 64.4404 71.7774L63.693 71.7883C63.543 70.7029 62.5888 69.8731 61.4279 69.8731H54.5284C51.9998 69.8731 49.9302 71.8538 49.9302 74.3019V89.8004C49.9302 92.2462 51.9998 94.2291 54.5284 94.2291H61.4279C62.2322 94.2291 62.9455 93.8317 63.359 93.2202C63.8406 93.2115 65.2333 93.1896 65.4627 93.1896C65.9353 93.4648 66.6009 93.8186 67.4756 94.0632C67.8777 94.1636 68.3025 94.2182 68.716 94.2182L82.8105 94.2291C86.4795 94.2291 89.4556 91.3618 89.4556 87.8524C89.4556 87.7978 89.4465 87.7519 89.4465 87.6973C90.2394 86.6448 90.7096 85.3498 90.7096 83.9543C90.7096 83.7665 90.6983 83.5787 90.6869 83.3909C91.2958 82.4278 91.6524 81.2879 91.6524 80.0693C91.6524 79.8247 91.6411 79.5714 91.6184 79.3268ZM59.1266 89.8004H54.5284V74.3019H59.1266V89.8004ZM85.9274 78.1432C85.8116 78.1541 85.732 78.2415 85.8911 78.3201C86.5703 78.652 87.0542 79.2941 87.0542 80.0693C87.0542 81.1437 86.1455 82.0173 85.0187 82.0173C85.0187 82.0173 84.7211 82.0937 84.9732 82.216C85.6502 82.5261 86.1114 83.19 86.1114 83.9543C86.1114 85.0397 85.2027 85.9044 84.0759 85.9044H83.8805C83.801 85.9044 83.7192 85.9263 83.7078 86.0136C83.6965 86.0595 83.7305 86.1141 83.7646 86.1359C84.3985 86.4788 84.846 87.099 84.846 87.8524C84.846 88.9268 83.9373 89.8004 82.8105 89.8004L68.716 89.7894C68.014 89.6016 67.4756 89.0928 66.7963 88.8482C66.5895 88.7718 66.1988 88.7499 65.6808 88.7499C65.1401 88.7499 64.4745 88.7827 63.727 88.7827V76.2171L66.2783 76.193C66.3351 76.193 67.0371 76.1821 67.3938 75.6187C68.4411 73.9459 71.3945 69.4516 71.3945 68.434V67.2045C71.3945 65.9968 71.0605 64.6254 72.1419 63.7606C72.8212 63.2081 73.7049 63.0967 74.5114 63.4614C76.2471 64.2367 76.6379 67.0167 76.8105 68.6109C76.8787 69.2747 76.1426 72.2862 75.6837 73.7581C75.4429 74.5443 76.6379 74.5443 76.6379 74.5443L85.8343 74.5552C86.9611 74.5552 87.8698 75.1208 87.8698 76.204C87.8698 77.2456 87.0179 78.0755 85.9274 78.1432Z" fill="#2C3D53"/>
<path d="M69.4749 28.9092C46.0227 28.9092 26.937 47.12 26.937 69.5062C26.937 77.2128 29.2134 84.7077 33.5003 91.1849C35.1679 93.6875 37.1353 95.9346 39.0323 98.1032C40.1 99.3436 41.2155 100.617 42.2287 101.89C48.7126 110.029 52.7133 118.808 53.8265 127.355C53.8969 129.845 55.6439 131.926 57.9771 132.668V135.326C57.9771 138.912 61.0713 141.836 64.8767 141.836H74.0753C77.8784 141.836 80.9726 138.912 80.9726 135.326V132.701C83.3058 132.005 85.0528 129.989 85.2141 127.499C85.9843 121.354 88.3538 115.054 92.4568 108.256C94.3901 105.078 96.746 102.246 99.2405 99.2453C101.528 96.4981 103.898 93.6526 105.886 90.521C109.898 84.1989 112.013 76.9355 112.013 69.5062C112.013 47.12 92.9293 28.9092 69.4749 28.9092ZM76.3744 135.326C76.3744 136.477 75.3498 137.407 74.0753 137.407H64.8767C63.6113 137.407 62.5776 136.477 62.5776 135.326V132.979H76.3744V135.326ZM101.955 88.2061C100.126 91.0953 97.9523 93.7093 95.6419 96.4762C93.1588 99.4659 90.5825 102.567 88.4901 106.03C84.0419 113.383 81.477 120.258 80.65 127.045C80.6387 127.089 80.6387 127.133 80.6273 127.189C80.5932 127.962 79.9957 128.55 79.2369 128.55H71.774V98.6579L68.7161 98.6469C68.1981 98.6469 67.6824 98.5902 67.1758 98.5137V128.55H59.8173C59.0721 128.55 58.4383 127.962 58.4269 127.233C58.4269 127.154 58.4156 127.002 58.4042 126.923C57.2319 117.611 52.9086 108.024 45.8841 99.1994C44.8027 97.8389 43.6532 96.5199 42.5491 95.2577C40.6634 93.1001 38.8823 91.0626 37.3875 88.8045C33.5594 83.0371 31.5352 76.359 31.5352 69.5062C31.5352 49.568 48.5626 33.3379 69.4749 33.3379C90.3985 33.3379 107.415 49.568 107.415 69.5062C107.415 76.1166 105.529 82.5807 101.955 88.2061Z" fill="#2C3D53"/>
<path d="M76.3722 132.979V135.326C76.3722 136.477 75.3499 137.408 74.0731 137.408H64.8767C63.6113 137.408 62.5776 136.477 62.5776 135.326V132.979H76.3722Z" fill="#E4EEF6"/>
<path d="M69.4748 33.3359C48.5626 33.3359 31.5352 49.5682 31.5352 69.5064C31.5352 76.3592 33.5594 83.0351 37.3874 88.8047C38.8823 91.0627 40.6634 93.1002 42.549 95.2578C43.6531 96.5201 44.8027 97.8391 45.8841 99.1996C52.9086 108.024 57.2319 117.611 58.4042 126.923C58.4155 127 58.4269 127.155 58.4269 127.233C58.4382 127.965 59.0698 128.55 59.8172 128.55H67.1757V98.5139C67.6823 98.5903 68.2003 98.6471 68.716 98.6471L71.7739 98.658V128.55H79.2346C79.9957 128.55 80.5932 127.965 80.6272 127.19C80.6386 127.133 80.6386 127.089 80.65 127.045C81.4769 120.258 84.0418 113.383 88.4901 106.031C90.5824 102.567 93.1587 99.466 95.6418 96.4764C97.9523 93.7095 100.124 91.0955 101.955 88.2063C105.529 82.583 107.414 76.1168 107.414 69.5064C107.414 49.5682 90.4007 33.3359 69.4748 33.3359ZM91.6525 80.0695C91.6525 81.2858 91.2958 82.428 90.6869 83.391C90.6983 83.5788 90.7097 83.7666 90.7097 83.9544C90.7097 85.3499 90.2371 86.6449 89.4442 87.6975C89.4442 87.7521 89.4556 87.798 89.4556 87.8526C89.4556 91.3619 86.4795 94.2293 82.8105 94.2293L68.716 94.2184C68.3025 94.2184 67.8777 94.1638 67.4756 94.0633C66.6009 93.8187 65.933 93.4649 65.4627 93.1876C65.2333 93.1876 63.8407 93.2116 63.359 93.2225C62.9456 93.8296 62.2322 94.2293 61.428 94.2293H54.5284C51.9999 94.2293 49.9302 92.2486 49.9302 89.8005V74.302C49.9302 71.854 51.9999 69.8732 54.5284 69.8732H61.428C62.5889 69.8732 63.543 70.7031 63.693 71.7884L64.4404 71.7775C65.1742 70.6026 66.3488 68.7202 66.7963 67.7899C66.7963 67.7899 66.785 66.8836 66.785 66.7176C66.7145 65.344 66.5669 62.4767 69.1999 60.3518C71.2332 58.7227 74.0276 58.3689 76.4425 59.4434C80.6386 61.304 81.1793 66.2743 81.386 68.1568C81.4428 68.6765 81.386 69.3732 81.2702 70.1266H85.8343C89.6169 70.1266 92.4681 72.7406 92.4681 76.2063C92.4681 77.3331 92.1591 78.3967 91.6184 79.327C91.6411 79.5715 91.6525 79.8249 91.6525 80.0695Z" fill="#FCD965"/>
<path d="M59.1293 74.302V89.8005H54.5288V74.302H59.1293Z" fill="#F35E52"/>
<path d="M85.9274 78.1432C85.8116 78.1541 85.7321 78.2414 85.8934 78.3201C86.5704 78.652 87.0543 79.294 87.0543 80.0693C87.0543 81.1437 86.1455 82.0172 85.0187 82.0172C85.0187 82.0172 84.7211 82.0959 84.9733 82.216C85.6503 82.5261 86.1115 83.1921 86.1115 83.9543C86.1115 85.0396 85.2027 85.9044 84.0759 85.9044H83.8805C83.801 85.9044 83.7192 85.9263 83.7078 86.0136C83.6965 86.0595 83.7306 86.1141 83.7669 86.1359C84.3985 86.4788 84.846 87.099 84.846 87.8524C84.846 88.9246 83.9373 89.8003 82.8105 89.8003L68.716 89.7894C68.0163 89.6016 67.4733 89.0928 66.7963 88.8482C66.5896 88.7718 66.1988 88.7499 65.6808 88.7499C65.1401 88.7499 64.4745 88.7827 63.7271 88.7827V76.217L66.2783 76.193C66.3351 76.193 67.0371 76.1821 67.3938 75.6187C68.4411 73.9459 71.3945 69.4516 71.3945 68.4339V67.2045C71.3945 65.9968 71.0605 64.6254 72.1419 63.7606C72.8212 63.2059 73.705 63.0967 74.5115 63.4614C76.2471 64.2367 76.6379 67.0167 76.8106 68.6108C76.8787 69.2747 76.1426 72.2862 75.6837 73.7581C75.4406 74.5442 76.6379 74.5442 76.6379 74.5442L85.8343 74.5552C86.9611 74.5552 87.8699 75.1208 87.8699 76.2039C87.8699 77.2456 87.0179 78.0755 85.9274 78.1432Z" fill="#E4EEF6"/>
<path d="M31.5352 69.5063C31.5352 69.764 31.5352 70.0239 31.5442 70.2838C31.5374 70.0261 31.5352 69.7662 31.5352 69.5063ZM107.414 69.5063C107.414 69.7575 107.412 70.0086 107.405 70.2598C107.414 70.0086 107.414 69.7575 107.414 69.5063Z" fill="#8E9690"/>
<path d="M69.4748 33.3359C48.5626 33.3359 31.5352 49.5682 31.5352 69.5064C31.5352 69.1198 31.5465 68.742 31.5579 68.3664C31.5692 68.742 31.5874 69.1198 31.6101 69.4954C32.821 50.5837 49.3486 35.5503 69.4748 35.5503C89.6146 35.5503 106.133 50.5837 107.339 69.4889C107.362 69.1111 107.38 68.7333 107.392 68.3555C107.403 68.7311 107.414 69.1198 107.414 69.5064C107.414 49.5682 90.4007 33.3359 69.4748 33.3359Z" fill="#FAE497"/>
<path d="M71.3472 65.783C71.3472 66.2568 71.3949 66.7417 71.3949 67.2046C71.3949 66.7417 71.3472 66.2568 71.3472 65.783Z" fill="#929EA9"/>
<path d="M76.6904 67.6543C76.7404 67.9993 76.779 68.3225 76.8108 68.6108C76.8131 68.6392 76.8154 68.6741 76.8154 68.7134C76.8154 68.7855 76.8086 68.8707 76.7995 68.9689C76.8154 68.8161 76.8199 68.6938 76.8108 68.6108C76.779 68.3225 76.7404 67.9993 76.6904 67.6543Z" fill="#929EA9"/>
<path d="M73.5531 63.2498C73.226 63.2498 72.9056 63.3218 72.6058 63.466H72.6035C72.5762 63.4791 72.5467 63.4943 72.5194 63.5096C72.5194 63.5096 72.5194 63.5096 72.5172 63.5096C72.5149 63.5118 72.5126 63.514 72.5103 63.514C72.4967 63.5205 72.4854 63.5271 72.474 63.5337C72.4695 63.5358 72.4672 63.538 72.4626 63.5402C72.4513 63.5468 72.4377 63.5555 72.4263 63.562C72.424 63.5642 72.4217 63.5642 72.4195 63.5664C72.4195 63.5664 72.4172 63.5686 72.4149 63.5686C72.4104 63.5708 72.4081 63.573 72.4036 63.5751C72.3763 63.5926 72.3513 63.6079 72.3241 63.6276C72.3241 63.6276 72.3241 63.6276 72.3218 63.6276C72.2877 63.6516 72.2536 63.6756 72.2196 63.7018C72.1946 63.7215 72.1673 63.7411 72.1423 63.7608C71.9856 63.8852 71.8606 64.0206 71.7584 64.1648C71.4221 64.6365 71.3472 65.1999 71.3472 65.783C71.3472 66.2547 71.3949 66.7417 71.3949 67.2046V67.3706C71.4653 66.8378 71.6607 66.3617 72.1423 65.9752C72.5581 65.6367 73.0488 65.4641 73.5531 65.4641C73.8735 65.4641 74.1983 65.534 74.5118 65.676C75.9022 66.2962 76.4315 68.2114 76.6724 69.7728C76.7337 69.4627 76.7791 69.1854 76.7996 68.9692C76.8087 68.8709 76.8155 68.7835 76.8155 68.7136C76.8155 68.6743 76.8132 68.6394 76.8109 68.611C76.7791 68.3227 76.7428 67.9995 76.6905 67.6545C76.4543 66.0822 75.9363 64.0971 74.5118 63.4616C74.1983 63.3196 73.8735 63.2498 73.5531 63.2498Z" fill="#F4F8FC"/>
<path d="M59.1293 74.302H54.5288V76.5164H59.1293V74.302Z" fill="#F68179"/>
<path d="M69.0795 72.9435C68.4207 74.0092 67.7777 75.005 67.3938 75.6187C67.0371 76.1821 66.3351 76.1952 66.2783 76.1952L63.7271 76.2149L66.2783 76.1952C66.3351 76.1952 67.0371 76.1821 67.3938 75.6187C67.7777 75.0029 68.4207 74.007 69.0795 72.9435ZM71.3718 68.6108C71.3263 68.8336 71.2059 69.1437 71.0333 69.5128C71.2037 69.1481 71.3241 68.8401 71.3718 68.6174C71.3718 68.6152 71.3718 68.613 71.3718 68.6108Z" fill="#929EA9"/>
<path d="M71.3718 68.6174C71.3241 68.8402 71.2037 69.1481 71.0333 69.5128C70.5971 70.4387 69.8269 71.7359 69.0795 72.9436C68.4207 74.0071 67.7777 75.0029 67.3938 75.6187C67.0371 76.1821 66.3374 76.1931 66.2783 76.1931L63.7271 76.2171V78.4315L66.2783 78.4075C66.3374 78.4075 67.0371 78.3965 67.3938 77.8331C68.4411 76.1603 71.3945 71.666 71.3945 70.6462V69.4189C71.3945 69.1546 71.3831 68.8904 71.3718 68.6174Z" fill="#F4F8FC"/>
<path d="M87.8702 76.2325C87.8702 76.2347 87.8702 76.2368 87.8702 76.2368C87.8702 76.2368 87.8702 76.2347 87.8702 76.2325ZM87.8702 76.2216C87.8702 76.2237 87.8702 76.2259 87.8702 76.2281C87.8702 76.2259 87.8702 76.2237 87.8702 76.2216ZM87.8702 76.2041C87.8702 76.2084 87.8702 76.2128 87.8702 76.2172C87.8702 76.2128 87.8702 76.2084 87.8702 76.2041ZM76.1089 74.457V74.4592C76.3497 74.54 76.6041 74.5444 76.6337 74.5444C76.6041 74.5444 76.3452 74.5378 76.1089 74.457Z" fill="#929EA9"/>
<path d="M76.1088 74.4592C75.9588 75.0227 75.8089 75.5642 75.6839 75.9726C75.4409 76.7588 76.6381 76.7588 76.6381 76.7588L85.8345 76.7697C86.5024 76.7697 87.0886 76.9684 87.4566 77.3571C87.7133 77.0427 87.8633 76.6561 87.8701 76.2369C87.8701 76.2369 87.8701 76.2347 87.8701 76.2325C87.8701 76.2325 87.8701 76.2303 87.8701 76.2281C87.8701 76.2259 87.8701 76.2237 87.8701 76.2216C87.8701 76.2194 87.8701 76.2172 87.8701 76.2172C87.8701 76.2128 87.8701 76.2085 87.8701 76.2041C87.8701 75.1209 86.9613 74.5553 85.8345 74.5553L76.6381 74.5444C76.6381 74.5444 76.6358 74.5444 76.6336 74.5444C76.604 74.5444 76.3496 74.54 76.1088 74.4592Z" fill="#F4F8FC"/>
<path d="M59.127 87.5859H54.5288V89.8003H59.127V87.5859Z" fill="#D24D44"/>
<path d="M84.8462 87.8525C84.8462 88.8964 83.9875 89.7525 82.9038 89.7983C83.9875 89.7525 84.8462 88.8964 84.8462 87.8525Z" fill="#5F6F7F"/>
<path d="M65.6808 86.5356C65.1401 86.5356 64.4745 86.5684 63.7271 86.5684V88.7828C64.4745 88.7828 65.1401 88.7478 65.6808 88.7478C66.1988 88.7478 66.5896 88.7719 66.7963 88.8483C67.4733 89.0929 68.014 89.6017 68.716 89.7895L82.8105 89.8004C82.8423 89.8004 82.8718 89.8004 82.9036 89.7983C83.9873 89.7524 84.846 88.8963 84.846 87.8525C84.846 87.8503 84.846 87.8459 84.846 87.8416C84.8438 87.4376 84.7052 87.0641 84.478 86.7562C84.11 87.2541 83.5011 87.5861 82.8105 87.5861L68.716 87.5751C68.014 87.3873 67.4733 86.8785 66.7963 86.6339C66.5896 86.5575 66.1988 86.5356 65.6808 86.5356Z" fill="#C1C7CE"/>
<path d="M45.8843 99.1995C52.9088 108.024 57.2321 117.611 58.4044 126.923C58.4157 126.995 58.4248 127.133 58.4271 127.213C58.4248 127.133 58.4157 126.995 58.4044 126.923C57.2321 117.611 52.9088 108.024 45.8843 99.1995Z" fill="#5F6150"/>
<path d="M31.6103 69.4954C31.5876 69.8557 31.5694 70.2182 31.5581 70.5807C31.5512 70.4824 31.549 70.3842 31.5444 70.2837C31.6921 76.8635 33.7049 83.2534 37.3876 88.8046C38.8825 91.0627 40.6636 93.1002 42.5492 95.2578C43.6533 96.5222 44.8029 97.839 45.8843 99.1995C52.9088 108.024 57.2321 117.611 58.4043 126.923C58.4134 126.995 58.4248 127.133 58.4271 127.213C58.4271 127.22 58.4271 127.227 58.4271 127.233C58.4384 127.962 59.07 128.55 59.8174 128.55H67.1759V126.336H59.8174C59.07 126.336 58.4384 125.748 58.4271 125.019C58.4271 124.94 58.4157 124.785 58.4043 124.709C57.2321 115.397 52.9088 105.81 45.8843 96.9852C44.8029 95.6246 43.6533 94.3078 42.5492 93.0434C40.6636 90.8858 38.8825 88.8483 37.3876 86.5902C33.9662 81.4386 31.992 75.5707 31.6103 69.4954Z" fill="#D6B856"/>
<path d="M31.5579 68.3662C31.5465 68.7418 31.5352 69.1196 31.5352 69.5062C31.5352 69.766 31.5374 70.0259 31.5442 70.2836C31.5465 70.3841 31.5511 70.4823 31.5579 70.5806C31.5692 70.2159 31.5874 69.8556 31.6101 69.4931C31.5874 69.1196 31.5692 68.744 31.5579 68.3662Z" fill="#D4BC71"/>
<path d="M101.12 89.4773C99.4793 91.8751 97.6096 94.1201 95.6421 96.4764C93.159 99.466 90.585 102.565 88.4927 106.031C90.585 102.565 93.159 99.466 95.6421 96.4764C97.6096 94.1201 99.4793 91.8751 101.12 89.4773Z" fill="#5F6150"/>
<path d="M107.34 69.4866C106.976 75.3217 105.129 80.9887 101.955 85.9918C100.126 88.881 97.9546 91.495 95.6418 94.2619C93.1587 97.2515 90.5825 100.35 88.4924 103.816C84.0418 111.169 81.4769 118.044 80.65 124.831C80.6386 124.875 80.6386 124.918 80.6273 124.975C80.5932 125.748 79.9957 126.335 79.2369 126.335H71.7739V128.55H79.2369C79.9957 128.55 80.5932 127.962 80.6273 127.189C80.6386 127.133 80.6386 127.089 80.65 127.045C81.4769 120.258 84.0418 113.383 88.4924 106.03C90.5825 102.565 93.1587 99.4659 95.6418 96.4763C97.6092 94.1199 99.479 91.875 101.119 89.4772C101.403 89.0579 101.683 88.6342 101.955 88.2062C105.395 82.7947 107.271 76.6058 107.408 70.2575C107.403 70.3623 107.399 70.4649 107.392 70.5697C107.38 70.2094 107.362 69.8469 107.34 69.4866Z" fill="#D6B856"/>
<path d="M107.392 68.3555C107.381 68.7333 107.363 69.1111 107.34 69.4889C107.363 69.847 107.381 70.2073 107.392 70.5699C107.399 70.465 107.403 70.3624 107.406 70.2598C107.413 70.0086 107.415 69.7575 107.415 69.5063C107.415 69.1198 107.403 68.7333 107.392 68.3555Z" fill="#D4BC71"/>
<path d="M76.3722 133.112C76.3722 134.263 75.3499 135.193 74.0731 135.193H64.8767C63.6113 135.193 62.5776 134.263 62.5776 133.112V135.326C62.5776 136.477 63.6113 137.407 64.8767 137.407H74.0731C75.3499 137.407 76.3722 136.477 76.3722 135.326V133.112Z" fill="#C1C7CE"/>
</svg>
